<svg version="1.0" xmlns="http://www.w3.org/2000/svg" width="701.333" height="561.333" viewBox="0 0 526 421"><path d="M128 95.1.5 190.1l-.3 20.2-.2 20.2 127.6 95c70.2 52.3 128 95.1 128.5 95.3.5.2.9-18.4.8-44.5v-44.8L175.4 271c-81.2-60.2-81.5-60.4-79.2-62.2 1.3-.9 37.9-28.2 81.5-60.5l79.2-58.8V44.7c.1-24.6-.2-44.7-.6-44.6-.5 0-58.2 42.8-128.3 95z"/><path d="m366 95.1-127.5 95-.3 20.2-.2 20.2 127.6 95c70.2 52.3 128 95.2 128.5 95.3.6.2.8-17.9.7-44.5l-.3-44.8-80.9-60.1c-44.5-33-80.8-60.4-80.8-60.9s36.3-27.9 80.8-60.9l80.9-60.1.3-44.8c.1-24.6-.1-44.7-.5-44.6-.5 0-58.2 42.8-128.3 95z"/></svg>