<svg version="1.0" xmlns="http://www.w3.org/2000/svg" width="700" height="560" viewBox="0 0 525 420"><path d="m31 44.2.1 44.3 81.4 60.4c44.8 33.2 81.5 60.7 81.5 61.1 0 .4-36.7 27.9-81.4 61.1l-81.5 60.4v44.3c-.1 25.6.3 44.2.8 44 .5-.1 58.3-43 128.5-95.3L288 229.6v-39.2L160.4 95.5C90.2 43.2 32.4.3 31.9.2c-.5-.2-.9 18.5-.9 44z"/><path d="M269.1 44.2v44.3l81.5 60.4c44.7 33.3 81.4 60.8 81.4 61.1 0 .3-36.7 27.8-81.4 61.1l-81.5 60.4v44.3c-.1 25.6.3 44.2.8 44 .5-.1 58.1-42.8 128-94.8l127-94.5v-41L397.9 95C328 43 270.4.3 269.9.2c-.5-.2-.9 18.5-.8 44z"/></svg>