<svg version="1.0" xmlns="http://www.w3.org/2000/svg" width="1322.667" height="1322.667" viewBox="0 0 992 992"><path d="M240.7 54.6c-.1.1-2.9.4-6.2.8-16.8 1.6-34 8-48.4 17.8-6.4 4.5-17.5 15.2-22.5 21.8-5.3 7.1-12.8 21.6-15.1 29-2.4 8-4.3 19.4-4.1 25.1 0 2.7-.2 4.9-.7 4.9-.4 0-.3.8.2 1.8s.6 2.4.1 3.2c-.5.8-.5 2.1 0 3 .5.9.5 2.2 0 3-.5.8-.6 1.8-.3 2.4.9 1.4.9 13.7 0 14.3-.4.2-.4 1 0 1.6.6 1 .8 4.4.3 6.4-.1.7-.1 5.6.1 18.8 0 .5-.1 3.1-.3 5.8-.2 2.6-.1 4.7.2 4.7.3 0 .4 1.7.2 3.7-.5 7-.5 22.4.1 22.9.3.3.2 1.7-.4 3.1-.6 1.6-.6 2.2.1 1.8.7-.4.7.3 0 1.9-.6 1.6-.6 2.6 0 2.6s.6 1 0 2.6c-.7 1.6-.7 2.3 0 1.9.7-.4.7.3 0 1.9-.6 1.7-.6 2.6.1 2.6.6 0 .6.7-.1 1.9-.7 1.3-.7 2.2 0 2.6.6.4.7 1.3.1 2.3-.5.9-.5 2.6-.1 3.7s.3 2.8-.2 3.7c-.6 1.2-.5 1.8.2 1.8.8 0 .8.6 0 2-.8 1.5-.8 2 .1 2 .8 0 .8.4.2 1.2-1 1.3-1 4.5.1 5.5.2.3.1 1.6-.5 3-.5 1.3-.5 2.2-.1 1.9.9-.5.7 4.7-.2 6.3-.4.5-.2 1.3.4 1.6.8.5.8 1.1 0 2-.7.8-.7 1.6-.2 1.9.6.3.7 2 .2 4.1-.4 1.9-.5 3.5-.1 3.5.8 0 .6 5.8-.2 6.7-.4.3-.2 1.2.4 2 .9.9.8 1.3 0 1.3s-.9.6-.2 1.8c.6 1.1.6 2.4 0 3.5-.7 1.2-.6 1.7.1 1.7.6 0 .8.5.4 1.2-1.1 1.8-1.2 4.8-.2 5.4.5.3.4 1.2-.2 1.9-.8.9-.8 1.5 0 2 .6.3.7 1.2.3 1.8-1.1 1.8-1.2 3.7-.2 3.7.7 0-.4 3.2-1.5 4.6-.1 0 .5.8 1.2 1.7.9 1 1 1.7.2 2.2-.6.4-.7 1.2-.1 2.4.6 1 .6 2.3.1 3.1-.5.8-.6 1.9-.2 2.5.9 1.3.9 3.7-.1 5.2-.4.6-.4 1.4.1 1.7.9.5.9 4.7-.1 6.3-.4.7-.3 1.4.2 1.7.5.3.6 2.1.1 3.9-.4 1.8-.3 4.3.1 5.5.6 1.5.5 2.1-.1 1.7-.7-.4-.7.3 0 1.9.6 1.6.6 2.6 0 2.6s-.6.9 0 2.5.6 2.6-.1 3.1c-.6.4-.6 1.1.2 2 .7.8.7 1.4.1 1.4-1.2 0-1 3.3.3 4.2.6.5.5.8-.3.8-.7 0-1 .5-.7 1 .9 1.5 1 21.3.2 22.7-.4.7-.3 1.4.2 1.8.7.3.7 1.5.1 3-.6 1.6-.5 2.5.3 2.9.9.3.9.5 0 .5-.7.1-1 .8-.7 1.6.9 2.2 1 16.5.2 16.5-.4 0-.3 1.1.2 2.5.6 1.6.6 2.6-.1 3.1-.6.4-.6 1.1.2 2 .7.8.7 1.4.1 1.4-1.2 0-1 3.3.3 4.2.6.5.5.8-.2.8-.9 0-1 .7-.4 2.3.5 1.3.5 3 0 3.9-.6 1-.6 1.9 0 2.3.7.4.7 1.5.1 3-.6 1.6-.6 2.5 0 2.5s.6.9 0 2.5c-.6 1.5-.6 2.5 0 2.5.5 0 .5 1.2 0 2.9-.5 1.9-.4 3.3.3 4 .8.8.8 1.1-.1 1.1-.8 0-.9.7-.2 2.5.6 1.6.6 2.5 0 2.5s-.6.9-.1 2.2c.5 1.3.5 3.2.1 4.3-.4 1.1-.3 2.8.2 3.7.5 1 .5 1.8.1 1.8-1 0-1 4.1.1 5.8.4.7.4 1.2-.1 1.2-.4 0-.9 1.1-.9 2.5-.1 1.4.1 2.3.5 2.1.3-.2.6.7.6 2s-.3 2.4-.7 2.4c-.4 0-.4 1.2-.1 2.7.8 4.2.8 8.7 0 10-.4.6-.4 1.4.1 1.7.9.5.9 4.7-.1 6.3-.4.7-.3 1.4.2 1.8.6.3.7 1.5.2 2.8-.5 1.4-.5 3 0 4 .7 1.1.6 1.7-.1 1.7s-.8.6-.1 1.9c.6 1 .7 2.1.4 2.5-1.1 1.1-1.2 3.6-.2 3.6.6 0 .6.7.1 1.8-1 2-1 3.2.1 4.9.4.6.3 1.4-.3 1.8-.6.4-.7 1.2-.1 2.4.6 1 .6 2.3.1 3.1-.5.8-.6 1.9-.2 2.4 1 1.6 1 4.6 0 5.2-.5.3-.4 1.2.3 2 .9 1.1.9 1.4 0 1.4-.8 0-.9.5-.1 1.9.7 1.4.7 2.2 0 2.6-.8.5-.7 1.1.1 2.1.6.8.7 1.4.2 1.4-1.1 0-.9 4.2.3 6.1.5.9.2 1-.9.6-1.6-.6-1.6-.5-.1 1.8.9 1.4 1.2 2.5.7 2.5s-1 .7-1 1.5.4 1.5.8 1.5c.5 0 .4 1.1-.1 2.5-.7 1.7-.6 2.5.1 2.5.8 0 .8.4 0 1.3-.8 1-.7 1.7.1 2.5.7.7.8 1.2.2 1.2-.6 0-1 1-.8 2.2.1 1.3.3 2.3.4 2.3.1 0 .3 1.8.5 4 .5 8.4 2.1 16.3 3.5 17.9.5.7.8 1.5.5 1.8-.3.2.3 2.7 1.3 5.4 6.9 19 22.5 38.2 39.5 48.5 3.1 1.8 5.5 3.9 5.3 4.5-.2.6.2 1.1 1 1.1.7 0 1.1-.4.9-.8-.3-.4.6-.2 2 .4 1.4.7 2.5 1.5 2.5 1.9 0 .5.7.8 1.5.8s2.3.4 3.3.9c4.5 2.3 11.9 4.7 17.7 5.7 2.2.4 4.9.9 6 1.1 1.1.2 4.8.6 8.2.8 3.4.2 6.7.6 7.3 1 .5.3 1 .2 1-.4 0-1 1.8-1 3.7.2.6.4 1.5.3 1.8-.3.5-.8 1.1-.8 2 0 .7.6 1.6.7 1.8.3.5-.7 5.1-.9 6.7-.3 1.4.6 3.6.4 4.7-.3.6-.4 1.4-.3 1.8.3.3.6 1.2.7 1.8.3 1.8-1.1 3.6-1.2 4.3-.2.3.5 1.3.5 2.5-.1 1.3-.8 1.9-.7 1.9 0s.6.8 1.8.2c.9-.5 2.6-.6 3.7-.2 1.1.4 2.6.3 3.3-.2.8-.7 1.2-.7 1.2.1 0 .9.5.9 2 .1 1.1-.6 2-.7 2-.3 0 .4 1.1.8 2.5.8s2.5-.4 2.5-.8.8-.3 1.8.2c1.1.6 2.4.6 3.2.1.9-.5 1.9-.5 2.6.1.8.7 1.4.6 1.9-.1.4-.6 1.2-.7 1.8-.3 1.4 1 3.8 1 5.2.1.6-.4 1.7-.3 2.4.2.8.4 2.7.4 4.3 0 1.5-.5 2.6-.5 2.3 0-.3.4.6.7 1.9.6 1.3 0 2.2-.4 1.9-.9-.2-.4 0-.7.6-.7.5 0 1.3.5 1.6 1 .5.8 1.1.8 2 0 1-.8 1.5-.8 2 0s1 .8 2 0 1.5-.8 2 0 1 .8 2 0c.9-.7 1.5-.7 1.9-.1.6 1 3.7.8 5.5-.4.5-.3 1.3-.1 1.6.5.5.8 1.1.7 2.1-.1 1.1-.9 1.4-.9 1.4 0 0 .8.5.9 1.9.1 1.4-.7 2.2-.7 2.6 0 .5.8 1.1.8 2 0 1-.8 1.9-.8 3.4 0 1.2.6 2.1.7 2.1.3 0-.9 15.8-.8 16.7.1.4.3 1.2.1 2-.5.9-.8 1.7-.8 2.6 0 1 .8 1.7.7 2.5-.1.9-.9 1.2-.9 1.2 0s.5 1 1.8.3 2.2-.7 2.9 0c.8.8 1.3.7 1.7 0 .5-.8 1.3-.8 2.7-.1 1.4.8 1.9.7 1.9-.1 0-.9.3-.9 1.4 0 .9.7 1.7.8 2 .3.3-.6 2-.7 4.1-.2 2.2.5 3.5.4 3.5-.2 0-.7.4-.7 1.3 0 .8.7 1.8.7 2.7.2.8-.5 2.1-.5 3 0 .9.5 2.2.5 3 0 .9-.5 1.9-.5 2.6.1.8.7 1.4.6 1.9-.1.3-.6 1.1-.8 1.6-.4 1.6.9 7 1.1 7.5.2.3-.4 1.6-.3 3 .2 1.7.7 2.3.7 1.9 0-.8-1.3.1-1.3 2.6 0 1 .6 1.9.7 1.9.3 0-.9 7.7-.9 8.6 0 .3.3 1.7.2 3.1-.4 1.6-.6 2.2-.6 1.8.1-.4.6.2.7 1.7.2 1.3-.4 3.4-.7 4.8-.5 2.2.2 4.6.3 10.3.3h3c.6 0 2.6-.1 4.2-.3 1.7-.1 4 .1 5.1.5 1.2.4 2.5.4 2.8.1.6-.6 11.8-.8 14.1-.3.6.1 1.5.1 2 0 .6-.1 3.7-.1 7-.1 8 .1 7.8.1 12.9 0 2.4-.1 4.8.1 5.5.5.6.4 1.1.3 1.1-.3s1.1-.6 3-.1c1.7.5 3 .6 3 .2 0-.8 8.6-.6 9.9.3.5.3 1.3.1 1.6-.5.5-.8 1.1-.8 2 0 .9.8 1.5.8 2 0 .3-.6 1.1-.8 1.6-.4 1.5.9 12.8 1 12.2.1-.7-1.1 1.2-.8 2.4.4.7.7 1.3.8 1.7 0 .4-.7 1.5-.7 3.1-.1 1.5.6 2.7.6 3-.1.4-.5 1.1-.7 1.6-.3 1.6 1 6.9 1.1 6.9.2 0-.5.8-.4 1.9.1 1 .6 2.1.7 2.5.4 1-1.1 3.6-1.2 3.6-.2 0 .5 1.1.4 2.5-.1 1.6-.6 2.5-.6 2.5.1 0 .6.7.6 2-.1 1.1-.6 2-.7 2-.2 0 1 3.6.9 4.6-.1.4-.4 1.3-.2 2 .4.8.7 1.4.7 1.8 0 .4-.6 1.5-.7 3-.1 1.5.5 2.7.5 3.4-.2.6-.6 1.2-.6 1.6.1.4.7 1.5.7 3.1.1s2.7-.6 3.1.1c.3.6 1 .6 1.7.1s2.1-.6 3.2-.2c1.1.4 2.8.4 3.7-.1.9-.5 1.9-.6 2.2-.1.4.6 6.1.8 6.1.2 0-.7 6.4-.5 7.8.2 1.1.6 1.7.5 1.7-.2s.7-.7 2.1.1c1.6.8 2.3.8 2.9-.1.6-.9.9-.9 1.5-.1.5.9 1 .9 2 .1.8-.7 1.5-.7 1.9-.1.7 1 2.4 1 4.3-.2.6-.4 1.5-.3 1.8.3.5.8 1.1.8 2 0 1-.8 1.5-.8 2 0s1 .8 2 0 1.5-.8 2 0 1.1.8 2.1-.1c1.1-.9 1.7-.9 2.8 0 1 .9 1.6.9 2.1.1s1-.8 2 0c.9.8 1.5.8 2 0 .4-.7 1.2-.7 2.6 0 1.4.8 1.9.7 1.9-.1 0-.8.5-.7 1.7.2.9.8 1.7 1.4 1.7 1.3 1.2-1 4.7-2.3 4.2-1.6-.3.6.4.9 1.8.8 1.3 0 2.2-.4 1.9-.9-.2-.4.1-.7.6-.7.6 0 1.1.5 1.1 1 0 .7.6.7 2 0 1.1-.6 2-.7 2-.3 0 .4 1.1.8 2.5.8s2.5-.4 2.5-.8.8-.3 1.8.2c1.1.6 2.4.6 3.5 0 1.1-.7 1.7-.6 1.7.1s.6.8 1.9 0c1.1-.5 2.2-.6 2.5-.2.6 1 3.6.9 5.2 0 .5-.4 1.6-.3 2.4.2.9.5 1.9.5 2.6-.1.8-.7 1.4-.6 1.9.1.4.7 1.2.7 2.6 0 1-.6 1.9-.7 1.9-.2 0 .5.7.9 1.5.9s1.5-.3 1.5-.7c0-.3.9-.6 2-.6s2 .4 2 .9c0 .4.4.5 1 .2.5-.3 3.1-.8 5.7-1 5-.5 9-1.1 13.3-2 1.4-.3 3.5-.7 4.7-.9 1.2-.3 3.1-1 4.3-1.6 1.2-.6 2.8-.9 3.6-.6.9.3 1.2.1.9-.4-.5-.9 1.5-1.5 3.8-1.1.4 0 .7-.3.7-.7 0-.5 1.8-1.5 4-2.2 2.2-.7 4-1.7 4-2.2 0-.4.9-.8 1.9-.8 1.1 0 2.1-.4 2.3-.8.2-.5 2.8-2.5 5.8-4.5s8-5.9 11-8.7c3-2.7 5.8-5 6.2-5 .5 0 .8-.4.8-1 0-.5 2.2-3.8 5-7.1 4.5-5.7 13.8-22.4 14.4-25.9.1-.8.8-2.5 1.4-3.7.7-1.3 1-2.3.8-2.3-.3 0-.2-1 .3-2.3.8-2 1.9-8.7 2.5-14.7.1-.9.5-2 .9-2.6.3-.6.4-1.4 0-1.8-1-.9-1-5.6 0-5.6.4 0 .3-.8-.2-1.8-.6-1.1-.6-2.4-.1-3.2.5-.9.5-1.9-.2-2.7-.7-.8-.7-1.3 0-1.3 1.2 0 1-3.3-.3-4.2-.7-.5-.6-.8.1-.8 1.1 0 1.1-5.1 0-6.9-.4-.5-.2-1.3.4-1.6.8-.5.7-1.1-.1-2.1-.9-1.1-.9-1.4 0-1.4.8 0 .9-.5.1-1.9-.7-1.4-.7-2.2 0-2.6.8-.5.7-1.1-.1-2.1-.6-.8-.7-1.4-.2-1.4 1.1 0 1.1-2.9-.1-4.8-.7-1.1-.1-1.6 1.7-1.3.4.1 0-1-.9-2.4s-1.2-2.5-.6-2.5c1.1 0 1.1-1.8-.1-3.7-.4-.6-.3-1.4.1-1.7 1-.6.9-3.6-.1-5.3-.4-.6-.3-1.4.3-1.8.6-.4.7-1.2.1-2.4-.6-1-.6-2.3-.1-3.1.5-.8.6-1.9.2-2.5-.9-1.3-.9-3.7.1-5.2.4-.6.4-1.4-.1-1.7-.9-.5-.9-4.7.1-6.3.4-.7.3-1.4-.2-1.8-.7-.3-.7-1.5-.1-3 .5-1.3.6-2.6.2-2.9-.9-.5-.6-8.1.3-9.6.3-.6.1-1-.6-1s-.8-.5-.3-1.3c1.1-1.5 1.1-3.8.1-5.5-.5-.6-.4-1.2.2-1.2.7 0 .7-.8.1-2.5-.6-1.6-.6-2.5 0-2.5s.6-1 0-2.6c-.7-1.8-.7-2.3.1-1.8.8.4.8.1.1-1.3-.7-1.2-.7-2.5-.1-3.6.7-1.2.6-1.7-.2-1.7-.9 0-.9-.3 0-1.4.8-1 .9-1.6.1-2.1-.7-.4-.7-1.2 0-2.6.8-1.4.7-1.9-.2-1.9-.8 0-.9-.3-.3-.8 1.2-.8 1.3-3.2.2-5-.5-.6-.4-1.2.2-1.2.7 0 .7-.8.1-2.5-.5-1.4-.6-2.5-.1-2.5 1 0 .9-1.9-.2-3.7-.4-.6-.3-1.4.1-1.7 1-.6.9-3.6-.1-5.3-.4-.6-.3-1.4.3-1.8.6-.4.7-1.2.1-2.4-.6-1-.6-2.3-.1-3.1.5-.8.6-1.9.2-2.4-.9-1.6-1-4.6 0-5.2.4-.3.5-1 .1-1.7-1-1.6-1-5.8-.1-6.3.5-.3.5-1 .1-1.7-1-1.6-1-5.8 0-6.4.4-.2.3-1.1-.4-1.9-.9-1.1-.9-1.4 0-1.4.8 0 .9-.5.1-1.9-.7-1.4-.7-2.2 0-2.6.8-.5.7-1.1-.1-2.1-.6-.8-.7-1.4-.2-1.4 1.1 0 1.1-2.9-.1-4.8-.4-.6-.3-1.2.3-1.2.7 0 .7-.8.1-2.5-.5-1.4-.6-2.5-.1-2.5 1 0 .9-1.9-.2-3.7-.4-.6-.3-1.4.1-1.7 1-.6.9-3.6-.1-5.3-.4-.6-.3-1.4.3-1.8.6-.4.7-1.2.1-2.4-.6-1-.6-2.3-.1-3.1.5-.8.6-1.9.2-2.5-.9-1.3-.9-3.7.1-5.2.4-.6.4-1.4-.1-1.7-.9-.5-.9-4.7.1-6.3.4-.7.3-1.4-.2-1.7-.4-.3-.5-2.4-.1-4.6.4-2.3.3-4.3-.2-4.6-.5-.4-.5-1 0-1.7s.6-2.1.2-3.2c-.4-1.1-.4-2.8.1-3.7.5-.9.5-1.9.1-2.2-.9-.5-.8-6.4.1-7.3.3-.3.2-1.6-.4-3-.5-1.3-.6-2.2-.1-2 .9.6.8-5.6-.2-7.1-.3-.6-.3-1.3.2-1.6.9-.5.9-5.3-.1-6.2-.3-.3-.2-1.7.3-3 .6-1.6.6-2.4-.1-2.4-.6 0-.6-.7.1-2 .8-1.4.8-2 0-2-.6 0-.8-.5-.4-1.2.9-1.4 1.2-5.8.4-5.8-.7 0-.3-11.6.4-12.9.4-.5.2-1.3-.4-1.6-.7-.5-.8-1.1-.1-1.9.6-.7.6-1.7.1-2.6-.5-.8-.5-2.1.1-3.2.7-1.2.6-1.8-.1-1.8s-.8-.6 0-1.9c.6-1.3.7-2.2 0-2.6-.6-.4-.6-1.5 0-3 .5-1.4.6-2.5.1-2.5-.9 0-.8-3.7.2-4.6.4-.4.2-1.3-.4-2.1-.9-.9-.8-1.3 0-1.3.9 0 .9-.5.1-2-.8-1.4-.8-2 0-2 .7 0 .8-.6.2-1.6-.5-.9-.6-3.3-.2-5.4.4-2.2.3-4.3-.2-4.8-.6-.6-.6-1.2.1-1.6.8-.5.8-1.3.1-2.7-.7-1.2-.7-1.9-.1-1.9.7 0 .7-.9.1-2.6-.7-1.6-.7-2.3 0-1.9 1.3.8 1.3-.1 0-2.5-.7-1.3-.7-2.1 0-2.5.7-.4.7-1.3 0-2.6-.7-1.2-.7-1.9-.1-1.9.7 0 .7-.8.1-2.4-.5-1.3-.6-2.7-.3-3 .5-.5.8-21.6.3-22.4-.5-.7-.3-6 .3-7.5.3-.9.2-1.9-.3-2.2-.5-.3-.6-1.5-.1-2.8.5-1.2.5-3.4 0-4.9-.4-1.6-.4-2.8.1-2.8s.6-1 .1-2.2c-.4-1.2-.5-3.9-.1-6s.4-3.8-.1-3.8c-.4 0-.4-1.4.1-3 .5-1.7.5-3 0-3s-.5-1.2-.1-2.8c.4-1.5.4-3.9 0-5.5-.4-1.5-.4-2.7.1-2.7s.5-1.2.1-2.7c-.4-1.4-.4-4.8-.1-7.5.4-2.6.4-4.8.1-4.8-.3 0-.6-2.8-.7-6.3-.2-13.1-3.3-25.5-9.6-38.2-9.5-19.3-25.6-35.2-45.3-44.9-9.2-4.6-25.9-10-28.1-9.2-.7.3-1.5.2-1.8-.2-.4-.3-1.4-.8-2.4-1-1.5-.3-519.1-.9-519.5-.6zm62.8 64.5c.9.9 1.1 14.9.2 14.9-.5 0-.5.4-.2 1 .5.9 1 10.7.5 12-.6 1.8-.4 6.2.2 6.6.5.3.5 1 .2 1.6-1.1 1.7-1 12.8.1 12.9.6 0 .5.3-.1.5-.8.3-.9 1.6-.4 4 .5 1.9.4 3.7-.1 4-.5.3-.7 1-.4 1.5.8 1.2 1.2 9.9.4 9.9-.3 0-.4 1.5-.2 3.2.5 5.4.5 8.2-.1 10.5-.2 1.3 0 2.5.5 2.8.5.4.7 1 .4 1.5-.3.4-22.1.8-48.6.8-26.5.1-47.9-.2-47.6-.4.3-.3.1-1.9-.3-3.5-.5-1.6-.5-2.7-.1-2.5 1 .6.7-5.7-.3-7.3-.4-.6-.4-1.1.1-1.1.4 0 .8-1.1.8-2.5s-.3-2.5-.7-2.5c-.4 0-.4-1 .1-2.3.5-1.2.5-3.2 0-4.4-.5-1.3-.4-2.5.1-2.8.6-.3.6-1.5 0-2.9-.5-1.3-.7-2.6-.5-2.8.5-.5.6-3.6.5-14.8-.1-9.6 1.6-16.1 6.1-22.6 5.3-7.7 15.2-13.8 24.9-15.3 5.5-.8 63.6-.8 64.5 0zm320.6 1.7c.5 1.3.5 2.2-.1 2.2s-.6.9-.1 2.2c.5 1.3.5 3.3 0 4.5-.4 1.2-.5 2.4-.1 2.7.9.5.8 5.9-.2 7.4-.3.6-.2 1.3.4 1.7.7.4.7 1.2 0 2.5s-.7 2.1 0 2.5c.7.4.7 1.2 0 2.5s-.7 2.1 0 2.5c.7.4.7 1.2 0 2.5s-.7 2.1 0 2.5c.6.4.7 1.3.1 2.3-.5.9-.5 2.6-.1 3.7s.3 2.8-.2 3.7c-.6 1.2-.5 1.8.2 1.8.8 0 .8.6 0 2s-.8 2 0 2c.6 0 .8.5.3 1.2-1.2 2-1.2 3.7-.1 4.4.7.4.6.9-.2 1.4-.9.6-.9 1.3-.1 2.9.7 1.2.8 2.1.2 2.1-1 0-.9 1.9.2 3.7.4.6.3 1.4-.3 1.8-.6.4-.8 1.1-.4 1.6.8 1.4.8 11.4 0 12.8-.4.6-.3 1.1.2 1.1 1 0 .9 3.6-.1 4.6-.3.4-.4 1.1 0 1.7.8 1.3 1 9.7.2 9.7s-.5 3.2.4 4.7c.4.6.3 1.4-.3 1.8-.7.4-.7 1.2-.1 2.3.6 1 .6 2.3 0 3.4s-.5 1.9.2 2.4c.8.5.8.8 0 1.3-.7.5-.8 1.7-.2 3.7.5 1.8.5 3.7 0 4.7-.6 1-.5 1.8.1 2.2.7.4.7 1.2 0 2.5-.6 1.1-.6 2.1-.1 2.4.5.3.5 2.1.1 4.1-.5 2.1-.4 3.8.2 4.1.6.4.6 1-.1 1.7-.6.6-.7 1.6-.1 2.7.5.9.5 2.2-.1 3.1-1.1 1.7-1.2 3.2-.1 2.5.9-.5.6 6.9-.3 8.4-.3.6-.1 1 .6 1 .8 0 .9.3 0 1.3-.6.8-.8 1.6-.5 2 1 1 1.2 5.7.2 6.3-.5.3-.5 1.1.1 1.8s.6 1.7.1 2.6c-1.2 1.8-1.3 3.3-.2 2.7.4-.3.7.6.7 1.9 0 1.3-.3 2.4-.6 2.4s-.4 1.7-.1 3.7c.2 2.1.4 4.2.4 4.8.1.5-.2 2.1-.6 3.4-.5 1.4-.4 2.1.1 1.8 1-.6.9 4.5-.1 6.2-.4.5-.2 1.3.4 1.6.8.5.7 1.1-.1 2.1-.9 1.1-.9 1.7 0 2.8.8 1 .9 1.6.1 2.1-.6.4-.7 1.2-.1 2.4.5.9.6 2.3.1 3.1-.4.7-.4 2.4 0 3.6.6 1.5.5 2.6-.1 3-.7.4-.6 1 .1 1.9.8 1 .8 1.5 0 2-.7.5-.8 1.1-.1 1.9.5.6.6 1.7.2 2.5-.4.7-.5 3-.1 5.2l.7 3.9-8.1.1c-4.4 0-62.2.1-128.4.2-114.1.2-120.3.1-119.8-1.6.2-.9-.1-1.7-.7-1.8-.7 0-.8-.2-.2-.5 1-.4 1.2-7 .2-8-.3-.3-.2-1.7.3-3 .6-1.4.6-2.6 0-2.9-.6-.3-.5-1.6 0-3.1 1.2-3.1 1.2-3.7.2-3-.4.2-.7-.8-.6-2.2.1-1.5.3-2.7.4-2.7.1 0 .3-1.2.4-2.8.1-1.5-.1-2.7-.4-2.7-.7 0-.4-6.6.5-7.9.3-.6 0-1.1-.7-1.2-1 0-1-.2-.1-.6.9-.3 1-1 .4-2.2-.6-1-.6-2.3 0-3.2 1.1-1.8 1.2-3.2 0-2.5-.4.3-.5-1.2-.1-3.4.4-2.4.3-4.3-.3-4.9-.8-.8-.8-1.1 0-1.1 1.3 0 1.2-3.2-.2-4.2-.6-.5-.5-.8.2-.8.9 0 1-.7.4-2.3-.5-1.4-.5-3 0-4 .7-1.1.6-1.7-.1-1.7-.6 0-.8-.5-.3-1.3 1.1-1.8 1.2-3.7.2-3.7-.6 0-.7-.6-.2-1.3 1-1.6 1.3-3.7.4-3.7-.4 0-.7-.9-.7-2s.4-2 .8-2c.5 0 .4-.9-.2-1.9-.7-1.4-.7-2.2 0-2.6.8-.5.7-1.1-.1-2.1-.9-1.1-.9-1.4 0-1.4.8 0 .9-.5.1-1.9-.7-1.4-.7-2.2 0-2.6.8-.5.8-1.1 0-2-.8-1-.8-1.5 0-2s.8-1 0-2-.8-1.5 0-2 .8-1 0-2-.8-1.5 0-2 .8-1 0-2c-.7-.8-.7-1.5-.1-1.9 1-.7 1-2.4-.2-4.3-.4-.6-.2-1.3.4-1.5.9-.3.9-.9 0-2.6-.7-1.4-.8-2.2-.2-2.2.7 0 .7-.9.2-2.2-.4-1.3-.5-3.5 0-5 .4-1.6.3-3-.2-3.4-.6-.4-.6-1.1.2-2 .9-1.1.9-1.7-.1-2.9-.7-.8-.8-1.5-.3-1.5s.9-.9.9-2-.3-2-.6-2c-.9 0-.6-3.2.3-4.7.4-.6.3-1.4-.3-1.8-.7-.4-.7-1.2 0-2.6.8-1.4.7-1.9-.1-1.9-.9 0-.9-.3 0-1.4.8-1 .9-1.6.1-2.1-.6-.4-.7-1.3-.2-2.3.9-1.8.8-5.9-.1-6.8-.3-.3-.2-1.7.3-3 .6-1.4.6-2.6 0-2.9-.6-.3-.6-1.5 0-3 .6-1.6.6-2.5-.1-2.5-.6 0-.6-.7.1-2 .8-1.5.8-2-.1-2-.8 0-.9-.4 0-1.3.6-.8.8-1.7.5-2-.9-.9-1.1-35.7-.2-35.7.4 0 .4-1-.1-2.3-.5-1.4-.5-3 0-4 .6-.9.6-1.7.2-1.7-.6 0-.9-6.5-.4-6.5h255.4l.8 2.3zm135.8.1c13.9 5.6 22.7 16.2 23.7 28.5.8 9.1.7 31 0 33.4-.4 1.1-.2 2.3.4 2.7.6.3.7 1.2.3 1.8-.6 1-.8 8.5-.2 11.3.1.5 0 1.1-.1 1.4-.6 1.7-.5 5 .2 5 .5 0 .7.4.4.9-.3.4-22.1.9-48.5.9l-47.9.2.2-3c.1-1.7-.1-3-.6-3-.4 0-.4-1 .1-2.3.5-1.2.5-3.1.1-4.2-.6-1.7-.5-2.6 1.1-5.5.1-.3-.3-1.5-.9-2.6-.6-1.2-.8-2.4-.5-2.8 1-1 1.1-4.6.2-4.6-.5 0-.4-1.1.1-2.5.6-1.5.6-2.6-.1-3-.5-.4-.7-1-.5-1.4.5-.8.7-5.3.5-11.1 0-1.9 0-3.7.1-4 .6-1.6.5-6.2-.2-6.6-.4-.3-.5-1.1-.2-1.9.7-1.8 1.1-12.5.4-12.5-.4 0-.4-7.8-.1-16 .1-1.4 4.1-1.5 33.4-1.4 31.7.1 33.4.2 38.6 2.3zM303.8 272.2c0 .7.2 2.2.2 3.3.1 1.1 0 3.7-.3 5.7-.4 2.3-.2 3.8.4 3.8.6 0 .7.6.1 1.6-.5.9-.7 2.6-.4 3.7.4 1.5.2 1.8-.9 1.3-.8-.4-.6-.1.3.7 1 .8 1.5 1.7 1.2 2-1 .9-1.1 6.7-.1 6.7.4 0 .5.6.1 1.2-1.1 1.8-1.2 4.8-.2 4.8.5 0 .6.5.2 1.1-1 1.6-1.1 8.9-.1 8.9.5 0 .5.5.1 1.1-1 1.7-1.1 5.2-.2 7.1.5 1 .5 1.8 0 1.8-1 0-.9 3 .2 4.8.4.6.3 1.2-.2 1.2-.4 0-.7 1.7-.5 3.7.7 7 .8 17.3.2 17.3-.3 0-.4 1.1-.2 2.3.3 1.5 0 2.4-.9 2.5-.7 0-2.2.1-3.3.2-1.1.1-7.2.1-13.5.1h-41c-2.2.1-15 0-18.9-.1-1.9 0-3.8-.3-4.2-.6-.4-.2-1-.1-1.2.3-.3.5-3.2.6-6.5.5-5.7-.3-6-.5-5.7-2.8.1-1.3-.2-2.4-.7-2.4-.5 0-.6-.5-.2-1.2 1-1.7 1.1-5.8.2-6.4-.5-.3-.5-1-.1-1.7 1-1.7 1-5.7 0-5.7-.5 0-.4-.6.2-1.4.9-1.1.9-2 .2-3.4-.6-1.1-.8-2.1-.6-2.4.9-.9 1.3-8.8.4-8.8-.4 0-.6-.6-.4-1.3 1.1-2.7 1.1-9.7.1-9.7-.8 0-.8-.3-.1-.8 1.1-.8 1.2-4.3.1-6-.3-.6-.2-1.3.3-1.7.6-.3.7-1.5.2-2.8-.5-1.2-.5-3.4 0-4.9.5-1.9.4-2.8-.4-2.8s-.8-.3 0-1.1c.7-.7.8-2.1.3-4-.5-1.6-.5-2.9 0-2.9s.7-1.5.4-3.3c-.5-3.3-.6-3.8-.3-8.2l.2-2.5H256c37.4 0 47.7.3 47.8 1.2zm480.5.7c.3 1.1.2 2.2-.1 2.6-.9.9-.9 6.5 0 6.5.4 0 .3 1.2-.3 2.7-.6 1.6-.9 3-.8 3.3.8 1.8 1.6 7 1 7-.9 0-.7 4.2.2 5.7.4.7.3 1.4-.2 1.8-.7.3-.7 1.5-.1 2.9.5 1.3.7 2.6.4 2.8-.9.9-1.2 8.8-.3 8.8.5 0 .4 1.1-.1 2.5-.6 1.7-.6 2.5.1 2.5.6 0 .7.5.4 1.1-1.1 1.6-1.2 6.9-.2 6.9.4 0 .5.5.1 1.1-1.1 1.8-1.2 9.3-.1 10.6.5.7.5 1.3 0 1.3-1 0-1 4.6 0 5.6.4.4.3 1.2-.1 1.8-1 1.6-.8 6.6.3 6.6.5 0 .5.4-.1 1s-5.1 1-10 1h-14.9c-3.3.1-6.4.1-7 .1H721c-.8 0-7.4 0-14.7-.1-7.3-.1-13.6 0-14 .3-1.5.9-5.5-1.2-4.6-2.5 1-1.8 1.1-8.8 0-8.8-.4 0-.5-.5-.1-1.2 1-1.6 1.1-5.6.3-7-.4-.6-.3-2.4.1-3.9.5-1.8.5-2.9-.1-2.9s-.7-.5-.3-1.1c.9-1.5 1.1-8.9.3-8.9-.4 0-.4-1.5 0-3.3.8-4.1.7-6.9-.2-8.5-.5-.6-.4-1.2.1-1.2 1 0 .9-3-.1-4.7-.4-.6-.3-1.4.2-1.8.6-.3.7-1.5.2-2.8-.5-1.2-.5-3.4 0-4.9.5-1.7.4-2.8-.2-2.8-.6 0-.8-.4-.5-.8.9-1.5 1.1-11.6.3-13-.5-.6-.4-1.2.1-1.2 1 0 1-3-.1-4.6-.3-.6-.4-1.4 0-1.8.3-.3 22.1-.6 48.4-.6 46.4 0 47.7.1 48.2 1.9zM223.2 424.8c-.1.8.2 1.1.8.7.6-.3.8-1 .5-1.5-1-1.6 6-.7 7.3.9 1.1 1.4 1.1 1.4.6-.1-.5-1.5.5-1.6 9.3-1.5 7.5.2 9.7.5 9.5 1.5-.1.8.2 1.1.8.7.6-.3.8-1 .5-1.4-.2-.5 3.6-.9 8.5-.9 6.4 0 8.8.4 8.3 1.2-.5.8-.3.8.8 0 .8-.7 6.5-1.2 14.8-1.2 11.5-.1 13.7.2 14.8 1.6 1.2 1.6 1.3 1.5.7-.2-.5-1.4-.3-1.7 1.2-1.4 1.7.3 2.2 1.5 2.5 6.3 0 .5-.1 2.5-.4 4.2-.2 1.8-.2 3.3.2 3.3.6 0 .5 6.8-.2 13.5-.2 1.6.1 3.6.6 4.2.6.8.6 1.3 0 1.3-1.1 0-1.1 3.6 0 4.6.4.4.2 1.3-.4 2-.7.9-.7 1.9.1 3.3.6 1.2.7 2.1.3 2.1-.4 0-.8 2-.8 4.5s.3 4.5.8 4.5c.4 0 .5.5.2 1.1-1.1 1.7-1.3 5.9-.3 6.5.4.3.6.9.4 1.3-1.1 1.7-1.4 6.1-.5 6.7.6.4.6 1.1-.1 1.9-.8 1-.8 1.9 0 3.4.6 1.2.7 2.1.2 2.1-.7 0-.8 5.5-.2 8.5.1.5.2 1.4.1 2-.1 1.4-33.1 1.4-33.1 0 0-.7-.3-.7-.8 0-.4.6-1.6 1.1-2.7 1.1s-2.3-.5-2.7-1.1c-.5-.6-.8-.6-.8 0s-10 1-27.9 1l-27.8.1.1-3.8c.1-2.1-.2-3.8-.6-3.8-.5 0-.5-.8 0-1.8.5-.9.6-2.6.2-3.7-.4-1.1-.4-3 .1-4.1.4-1.3.3-2.6-.4-3.3-.6-.6-.7-1.1-.2-1.1.6 0 1-1.1 1-2.5s-.3-2.5-.7-2.5c-.4 0-.3-1.3.2-2.9.5-1.9.4-3.3-.3-4-.8-.8-.7-1.1.2-1.1.8 0 1.1-.6.7-1.6-.4-.9-.1-2.4.6-3.2 1-1.2 1-1.4.1-.8-1.2.7-1.8-.6-1.3-2.9.6-3.1.4-12.5-.3-12.5-.5 0-.5-.5-.2-1.1 1.1-1.6 1.3-5.9.4-5.9-.5 0-.4-1.1.1-2.5.6-1.5.6-2.6-.1-3-.5-.4-.6-1.2-.2-1.8.9-1.5 1.2-4.7.4-4.7-.3 0-.5-2.1-.3-4.7.1-2.7.3-5.7.3-6.9.1-2 .7-2.1 7.8-2 5.7.1 7.5.4 7.3 1.4zm164-.4c.6.8.8.8.8 0 0-.9 30.6-1.2 117.8-1.2 64.7 0 118 .2 118.5.5.4.2.2 1.3-.3 2.4-.8 1.4-.7 1.9.2 2 .7 0 .9.2.3.5-1 .4-1.2 7-.2 8 .3.3.2 1.7-.4 3.1-1.2 3.1-1.1 3.6.1 2.8.7-.4.7.3 0 1.9-.7 1.9-.6 2.6.3 2.7.9 0 .9.2 0 .6-.9.3-1 1-.3 2.4.7 1.3.7 1.9.1 1.9-.7 0-.7.8-.2 2.3.6 1.4.5 3-.1 4.1-.6 1-.6 2.1-.2 2.5 1.1.8 1.2 8.1.1 8.1-.4 0-.3.9.3 1.9.7 1.4.7 2.2 0 2.6-.8.5-.8 1.1-.1 1.9.6.7.8 1.6.4 2-1 1-1.1 4.6-.1 5.2.5.3.1 1.5-.9 2.7-1 1.1-1.3 1.7-.6 1.4 1.6-1 2.4.5 1.3 2.3-.5.9-.5 1.9.2 2.7.6.7.6 1.3.1 1.3-1 0-1 4.1.1 5.8.4.7.3 1.2-.2 1.2-1.3 0-1 3.3.3 4.2.7.5.6.8 0 .8s-1.1.9-1.1 2 .3 2 .6 2c.9 0 .6 3.8-.3 4.6-.4.4-.2 1.3.4 2 .7.8.7 1.4-.1 1.9-.8.5-.8 1.1.1 2.1.9 1.1.9 1.4 0 1.4s-.9.5-.1 2c.6 1.1.7 2 .2 2-1 0-.9 3 .2 4.8.4.6.3 1.2-.3 1.2-.7 0-.7.8-.2 2.3.5 1.3.5 3 .1 3.7-.5.8-.5 1.9.1 2.6.7.8.7 1.4 0 1.8-.9.6-.7 4.3.3 5.3.3.3.1 1.6-.4 2.9-.6 1.6-.6 2.4.1 2.4.6 0 .7.6.2 1.2-1.1 1.9-1.2 3.8-.2 3.8.6 0 .5.9-.2 2.1-.8 1.6-.8 2 .1 1.4.9-.6.9-.3.1 1.3-1.4 2.6-1.4 3.5 0 2.6.8-.4.8 0 0 1.5-.9 1.6-.9 2.1.1 2.2 1 0 1 .2.1.6-.9.3-1 1-.3 2.4.6 1 .7 1.9.3 1.9-1 0-1 4.1 0 5.7.4.7.3 1.5-.3 1.8-.8.5-.7 1.1.1 2.1.6.8.7 1.4.2 1.4-.5 0-.9.9-.9 2s.4 2 .8 2 .4 1-.1 2.3c-.5 1.3-.5 3 0 3.9.6 1.1.5 1.9-.1 2.3-.7.4-.7 1.2 0 2.5s.7 2.1 0 2.5c-.6.3-.7 1.4-.2 2.3.9 2.1.9 4.3-.1 5.9-.4.6-.4 1.4.1 1.7.9.5.9 4.7-.1 6.3-.4.7-.3 1.4.3 1.8.5.3.7 1.4.2 2.3-.9 2.1-.9 5.3.1 6.9.4.6.3 1.4-.3 1.8-.7.4-.7 1.2 0 2.5s.7 2.1 0 2.5c-.7.4-.7 1.3 0 2.6.8 1.3.7 1.9 0 1.9-.8 0-.8.6 0 2 .6 1.2.7 2 .1 2-1 0-.9 1.9.2 3.7.4.6.3 1.4-.3 1.8-.7.4-.7 1.2-.1 2.3.6 1 .6 2.4-.1 3.5-.7 1.5-.7 1.8.2 1.2.9-.6.9-.2.1 1.4-.9 1.6-.9 2.1.1 2.2.9 0 1 .2.1.5-.7.3-1 1.1-.7 1.8.4 1-1.2 1.4-6.2 1.5-3.7.1-7.1.4-7.6.7-.4.3-.8.1-.8-.4s-1.7-.7-3.7-.6c-3.5.4-7.5.4-21 .2-2.8 0-5.6.3-6.2.7-.6.3-1.1.2-1.1-.4 0-.5-1-.8-2.2-.6-1.9.4-8.7.6-13.8.4h-66.5c-35.7 0-67.4 0-70.3-.1-2.9 0-5.5.1-5.7.4-.3.3-2 .2-3.8-.1-1.8-.4-4.9-.4-6.9 0-2.1.3-4 .4-4.3.1-.8-.9-17.5-.8-17.5.1 0 .5-.5.5-1.1.1-.6-.3-4.6-.6-9-.6s-7.7-.3-7.4-.8c.3-.5.1-1.2-.5-1.5-.7-.5-.8-1.1-.1-1.9.6-.7.6-1.7.1-2.6-.5-.8-.5-2.1.1-3.2.6-1.2.6-1.8 0-1.8s-.6-1.1-.1-3c.5-1.6.5-3.2.1-3.5-.4-.2-.5-2.6-.1-5.2.5-2.7.4-4.9-.1-5.1-.5-.2-.7-.8-.3-1.3 1-1.8 1.3-4.9.3-4.9-.6 0-.6-.7.1-1.9.7-1.4.7-2.2 0-2.6-.8-.5-.8-1.1 0-2 .7-.9.8-1.5.1-1.9-.7-.4-.7-1.5-.1-3 .5-1.3.6-2.6.3-3-.8-.8-.8-7 0-8.3.4-.6.3-1.4-.3-1.8-.7-.4-.7-1.2 0-2.5 1.2-2.2 1.3-3.3.3-2.7-.5.3-.8-.6-.8-1.9 0-1.3.2-2.4.5-2.4.8 0 .5-4.8-.3-5.6-.3-.4-.2-1.5.4-2.5.7-1.4.6-1.9-.2-1.9s-.8-.4.1-1.5 1-1.8.1-2.8c-.6-.8-.8-1.7-.4-2 1-1.1 1-5.7 0-5.7-.5 0-.4-.7.3-1.5.9-1.1 1-1.8.1-2.8-.6-.8-.8-1.7-.4-2.1 1-1 1.3-3.6.4-3.6s-.8-3.1.2-4.7c.4-.6.3-1.5-.3-1.8-.8-.5-.8-1.1 0-2 .8-1 .8-1.5 0-2s-.8-1 0-2c.7-.8.7-1.5.1-1.9-.6-.4-.6-1.8-.1-3.4.4-1.6.4-3.6-.2-4.5-.5-1-.5-1.7-.1-1.7 1 0 1-4.1-.1-5.8-.4-.7-.3-1.2.2-1.2 1.3 0 1-3.3-.3-4.2-.6-.5-.5-.8.3-.8.9 0 1-.5.3-1.7-.5-1-.5-2.6-.1-3.9.5-1.2.6-2.4.3-2.7-.9-.9-.9-7.8 0-8.4.4-.3.3-1.1-.4-1.9-.9-1.1-.9-1.4 0-1.4s.9-.5.1-2c-.8-1.4-.8-2 0-2 .7 0 .8-.6.2-1.6-.5-.9-.6-3.1-.2-4.9.4-1.8.3-3.9-.1-4.8-.6-1-.5-1.8.1-2.2.7-.4.7-1.3 0-2.6-.6-1-.7-1.9-.2-1.9.4 0 .8-.9.8-2s-.4-2-.8-2c-.5 0-.4-.9.2-2 .8-1.5.8-2-.2-2-.9 0-.9-.3 0-1.2.7-.7.8-1.7.1-3-.5-1-.6-1.8-.1-1.8.4 0 .8-.9.8-2s-.3-2-.6-2-.6-.9-.6-2 .4-2 .8-2c.5 0 .4-.9-.2-1.9-.7-1.4-.7-2.2 0-2.6.8-.5.7-1.1-.1-2.1-.9-1.1-.9-1.4 0-1.4.8 0 .9-.5.2-1.9-.6-1-.7-2.1-.4-2.5 1.1-1 1-7.6-.1-7.6-.6 0-.5-.5.1-1.1.8-.8.8-2 .3-3.5-.6-1.5-.6-2.4 0-2.4s.6-.9 0-2.5-.6-2.6.1-3.1c.6-.4.6-1.1-.2-2-.9-1.1-.9-1.4 0-1.4.7 0 .9-.5.6-1-.3-.6-.4-1.4 0-1.9.8-1.3 17.8-1 18.7.3zm312.7-.1c1 .8 1.3.8.8.1-.5-.8 1.9-1.2 8.3-1.2s8.8.4 8.3 1.2c-.5.8-.3.8.8 0 .8-.7 6.5-1.2 14.8-1.2 11.5-.1 13.7.2 14.8 1.6 1.2 1.5 1.2 1.5.7.1-.5-1.5 1.2-1.7 17.6-1.7 14.9.1 18 .3 17.6 1.4-.3.8-.1 1.4.5 1.4s.7.5.3 1.2c-1 1.6-1.1 9.9-.1 12 .4 1 .4 1.8-.2 1.8-.5 0-.6 1.4-.1 3.3.4 1.8.3 4.3-.1 5.5-.5 1.2-.4 2.4.2 2.7.5.4.6 1.2.2 1.8-.9 1.5-1.2 4.7-.4 4.7.3 0 .5 2.4.3 5.2-.2 2.9-.3 6-.3 6.8.2 5.2 0 11.4-.4 11.8-.2.2 0 1.4.4 2.6.5 1.1.5 3 .1 4.1-.4 1.1-.3 2.6.2 3.2.7.9.7 1.3 0 1.3-1.1 0-.9 3.1.3 5 .3.6.3 1-.2 1-.9 0-1 7.1-.1 8.6.4.5.4 1.4 0 1.9-.9 1.3-27.3 1.4-26.5.2.4-.6.1-.7-.8-.1-1.9 1.2-23.9 1.3-23.2 0 .4-.5.1-.6-.8 0-.8.4-11.1.9-23 .9l-21.7.1.3-4.3c.2-2.7-.1-4-.8-3.6-.5.3-.7.2-.4-.4 1-1.5 1.6-6.3.9-6.3-.4 0-.6-1.9-.4-4.2.1-2.4.3-5 .2-5.8 0-1.9.1-6.3.4-11.3.1-2-.2-3.7-.7-3.7-.4 0-.5-.6-.1-1.2 1.1-1.8 1.2-4.8.2-5.4-.4-.3-.5-1.1-.1-1.7 1.1-1.8 1.1-4.7-.1-4.7-.6 0-.6-.4.1-1.1.8-.8.8-2 .3-3.4-.5-1.3-.7-2.5-.4-2.7.8-.8.9-9.3.1-10.6-.5-.6-.5-1.2 0-1.2.4 0 .8-1.1.8-2.5s-.4-2.5-.9-2.5-.3-.6.3-1.4c.8-1 .9-2.1.3-3.3-.5-1-.7-2.5-.5-3.3.3-.8.6-2 .8-2.7.2-.6 2.4-1.1 5.2-1.1 2.6 0 5.4.5 6.2 1.1zM222.2 576.4c-.3.5.1.5.9 0 1.9-1.1 14.1-1.2 15.7-.1.7.6 1.2.6 1.2 0 0-.5 1.5-.8 3.4-.8s3.2.4 2.8.9c-.3.5.1.6.9.1 1.7-1.1 46.9-1.3 46.9-.2 0 .5.6.5 1.2.1 1.9-1.2 4.8-1.2 4.8-.1 0 .5.6.4 1.4-.2 1.2-1 1.7-.8 2.5.6.5 1.1.6 2.5.1 3.2-.4.8-.4 2.6 0 4.2.5 1.5.6 3 .3 3.3-.9.9-.9 11.1 0 12.3.6.8.6 1.3 0 1.3-1 0-1 4.6 0 5.6.4.4.3 1.2 0 1.8-1 1.6-1.1 4.6-.1 4.6.5 0 .4.8-.1 1.8s-.6 2.4-.1 3.1c.4.8.4 2.7 0 4.2-.5 1.7-.5 3.1.1 3.5.6.3.6 1.1.1 1.7-.4.7-.7 2.3-.5 3.7.5 3.1.4 5-.1 7.5-.2 1.1.1 2.6.7 3.2.6.9.6 1.3-.1 1.3s-.9 1.3-.6 3.2c.3 1.8.5 3.9.5 4.5-.1.7-.2 4.2-.2 7.8-.1 3.9-.6 6.2-1.2 5.8-1.3-.8-36.7-1-36.7-.2 0 .3-1.3.4-3 .1-1.9-.3-2.7-.8-2.3-1.6.5-.8.3-.8-.8 0-2.2 1.8-22.4 1-27.4-1-2.2-.9-4.8-1.9-5.7-2.3-1-.3-1.8-.9-1.8-1.4 0-.5-.7-.9-1.5-.9s-1.5-.5-1.5-1c0-.6-.5-1-1-1-2.7 0-11.1-12.2-11.5-16.8-.1-1.5-.7-3.8-1.3-5.2-.5-1.4-.7-3.1-.4-3.8.8-2.1.7-11.6-.2-13-.4-.7-.3-1.2.1-1.2 1 0 1-4.7 0-5.6-.3-.3-.2-1.7.3-3 .6-1.4.6-2.6-.1-2.9-.5-.4-.6-1.2-.2-1.8.9-1.5 1.2-4.7.4-4.7-.3 0-.5-2.4-.3-5.2.2-2.9.3-6 .3-6.8-.2-6.2 0-8.4.8-8.9 1.5-1 14-.7 13.3.3zm471.3-.4c.4-.7 1.2-.7 2.5 0 1.1.6 2.1.6 2.4.1.7-1.1 2.5-.9 4.5.3.9.6 1.2.5.7-.2-.4-.7.1-1 1.4-.9 1.1.1 2 .5 2 .9 0 .5.9.4 2-.2 1.5-.8 2-.8 2 .2 0 .8.3.9.8.3.8-1.2 3.2-1.3 5-.2.6.5 1.2.4 1.2-.1 0-1 7-.9 8.8.2.7.4 1.2.3 1.2-.1 0-.5 1.5-.8 3.4-.8 2 0 3.2.4 2.8 1-.4.6 0 .6.9 0 1.7-1.3 16.8-1.3 18.8-.1.8.5 1.2.5.9 0-.4-.5.9-.9 2.8-.9s3.4.3 3.4.8c0 .6.5.6 1.3 0 .6-.5 5.7-.9 11.2-.8l10 .1.1 3.6c.1 1.9.4 4.1.8 4.7.4.6.3 1.1-.2 1.1-1 0-.8 4.2.3 5.9.3.6.3 1.1-.2 1.1-.4 0-.8 1.1-.8 2.5s.4 2.5.8 2.5c.5 0 .5.6.1 1.2-1.1 1.8-1.2 4.8-.2 4.8.5 0 .7.4.4.9-.9 1.4-1.1 10.5-.3 11.8.5.7.4 1.3-.1 1.3-1 0-.8 4.2.3 5.9.3.6.3 1.1-.2 1.1-.4 0-.8 1.1-.8 2.5s.4 2.5.9 2.5.4.6-.1 1.2c-.5.7-.8 2.3-.7 3.5 0 1.3-.3 2.3-.8 2.3s-.6.4-.3 1c.8 1.3-3.1 10-4.4 10-.6 0-1 .4-.8 1 .4 1.6-7.5 9.1-9 8.6-.8-.3-1.2-.2-.9.2.7 1.1-4 3.8-9.4 5.2-6.6 1.8-20.3 2.3-19.4.7.5-.8.2-.7-.9.2-.9.7-2.6 1.1-3.7.8-1.1-.3-2.3-.1-2.6.4-.3.6-1.1.6-1.7.1-1.4-1-13.9-.8-15.6.2-.6.4-1.1.4-1.1-.1 0-.4-5.7-.7-12.6-.7l-12.6.1.5-2.3c.2-1.3 0-2.4-.5-2.4s-.6-.6-.2-1.2c1.1-1.8 1.2-4.8.2-4.8-.5 0-.6-.5-.2-1.1 1-1.6 1.1-8.9.1-8.9-.4 0-.4-.8 0-1.8 1-2.1 1-4.3 0-5.9-.4-.6-.3-1.4.1-1.7 1-.6.8-4.8-.3-6.5-.3-.6-.3-1.1.2-1.1.4 0 .8-1.1.8-2.5s-.4-2.5-.8-2.5c-.5 0-.5-.5-.1-1.1 1-1.6 1.1-8.9.1-8.9-.4 0-.3-.9.3-1.9.7-1.4.7-2.2-.1-2.6-.6-.5-.4-1.2.8-2.2 1-.8 1.3-1.2.7-.9-1.5.7-1.7-1.9-1.2-13.2.2-3.4 0-6.2-.5-6.2-.4 0-.5-.5-.2-1.1 1.2-1.8 1.3-5.9.1-5.9-.6 0-.4-.4.3-.9.9-.6 2.2-.6 3.2 0 1.1.6 2 .5 2.4-.1z"/><path d="M531.5 211.9c-.3.5-.2 1.2.3 1.5.5.3.9-.1.9-.9 0-1.7-.3-1.9-1.2-.6zM531 220c0 .5.5 1 1.1 1 .5 0 .7-.5.4-1-.3-.6-.8-1-1.1-1-.2 0-.4.4-.4 1zM616.5 224c-.3.6.1.7.9.4 1.8-.7 2.1-1.4.7-1.4-.6 0-1.3.4-1.6 1zM523.3 227.5c0 .8.4 1.2.9.9.5-.3.6-1 .3-1.5-.9-1.3-1.2-1.1-1.2.6zM582 255.4c0 .2.8 1 1.8 1.7 1.5 1.3 1.6 1.2.3-.4s-2.1-2.1-2.1-1.3zM419.5 258.9c-.3.5-.2 1.2.3 1.5.5.3.9-.1.9-.9 0-1.7-.3-1.9-1.2-.6zM411 268.1c0 .5.5.7 1 .4.6-.3 1-.8 1-1.1 0-.2-.4-.4-1-.4-.5 0-1 .5-1 1.1zM218.6 280.2c.3.4.9.8 1.5.8.5 0 .9-.4.9-.8 0-.5-.7-.9-1.5-.9s-1.2.4-.9.9zM283.6 280.7c-.6 1.4-.5 1.5.5.6.7-.7 1-1.5.7-1.8-.3-.3-.9.2-1.2 1.2zM243.6 283.8c-.3.5.1.9.9.9s1.2-.4.9-.9c-.3-.4-.7-.8-.9-.8-.2 0-.6.4-.9.8zM263.9 286.2c-.5 1.8-.6 3.8-.1 3.4.7-.8 1.2-3.6.6-3.6-.2 0-.4.1-.5.2zM243 292c0 .5.5 1 1.1 1 .5 0 .7-.5.4-1-.3-.6-.8-1-1.1-1-.2 0-.4.4-.4 1zM295 292.4c.7.7 1.3.7 2 0 .6-.6.3-1-1-1s-1.6.4-1 1zM231.3 299.5c0 .8.4 1.2.9.9.5-.3.6-1 .3-1.5-.9-1.3-1.2-1.1-1.2.6zM246.9 303.7c-1.3 1.6-1.2 1.7.4.4.9-.7 1.7-1.5 1.7-1.7 0-.8-.8-.3-2.1 1.3zM235.3 304.7c0 .9.4 1 1.4.2.7-.6 1.3-1.2 1.3-1.4 0-.1-.6-.2-1.3-.2-.8 0-1.4.6-1.4 1.4zM271 306.4c0 .2.8 1 1.8 1.7 1.5 1.3 1.6 1.2.3-.4s-2.1-2.1-2.1-1.3zM259.4 311.4c.1.8.5 1.8.8 2.2.4.3.5-.1.4-1-.1-.8-.5-1.8-.8-2.2-.4-.3-.5.1-.4 1zM211 330.4c0 .2.8 1 1.8 1.7 1.5 1.3 1.6 1.2.3-.4s-2.1-2.1-2.1-1.3zM215.3 335.5c0 .8.4 1.2.9.9.5-.3.6-1 .3-1.5-.9-1.3-1.2-1.1-1.2.6zM246.6 339.8c-.2.4.4.8 1.4.8 1 0 1.6-.4 1.4-.8-.3-.4-.9-.8-1.4-.8-.5 0-1.1.4-1.4.8zM298.5 340c-.3.6.1.7.9.4 1.8-.7 2.1-1.4.7-1.4-.6 0-1.3.4-1.6 1zM234 351.4c0 .2.8 1 1.8 1.7 1.5 1.3 1.6 1.2.3-.4s-2.1-2.1-2.1-1.3zM695 275.4c0 .2.7.7 1.6 1 .8.3 1.2.2.9-.4-.6-1-2.5-1.4-2.5-.6zM731.5 284c-.3.5-.1 1 .4 1 .6 0 1.1-.5 1.1-1 0-.6-.2-1-.4-1-.3 0-.8.4-1.1 1zM739 284.1c0 .5.5.7 1 .4.6-.3 1-.8 1-1.1 0-.2-.4-.4-1-.4-.5 0-1 .5-1 1.1zM763.5 291.9c-.3.5-.2 1.2.3 1.5.5.3.9-.1.9-.9 0-1.7-.3-1.9-1.2-.6zM722.7 304.1c.7.7 1.5 1 1.8.7.3-.3-.2-.9-1.2-1.2-1.4-.6-1.5-.5-.6.5zM691 310.4c0 .2.8 1 1.8 1.7 1.5 1.3 1.6 1.2.3-.4s-2.1-2.1-2.1-1.3zM691.6 319.3c.3 1 .9 1.5 1.2 1.2.3-.3 0-1.1-.7-1.8-1-.9-1.1-.8-.5.6zM770 319.4c0 .2.8 1 1.8 1.7 1.5 1.3 1.6 1.2.3-.4s-2.1-2.1-2.1-1.3zM691.4 335.4c.1.8.5 1.8.8 2.2.4.3.5-.1.4-1-.1-.8-.5-1.8-.8-2.2-.4-.3-.5.1-.4 1zM763.4 335.1c-.3.6-.2 1.5.3 2s.9.1.9-1.1c0-2.3-.2-2.4-1.2-.9zM735 348.4c.7.7 1.3.7 2 0 .6-.6.3-1-1-1s-1.6.4-1 1zM750.9 355.7c-1.3 1.6-1.2 1.7.4.4 1.6-1.3 2.1-2.1 1.3-2.1-.2 0-1 .8-1.7 1.7zM235.9 440.7c-1.3 1.6-1.2 1.7.4.4.9-.7 1.7-1.5 1.7-1.7 0-.8-.8-.3-2.1 1.3zM262.9 443.7c-1.3 1.6-1.2 1.7.4.4 1.6-1.3 2.1-2.1 1.3-2.1-.2 0-1 .8-1.7 1.7zM243.9 448.7c-1.3 1.6-1.2 1.7.4.4 1.6-1.3 2.1-2.1 1.3-2.1-.2 0-1 .8-1.7 1.7zM219.6 455.3c.3 1 .9 1.5 1.2 1.2.3-.3 0-1.1-.7-1.8-1-.9-1.1-.8-.5.6zM211 499.4c0 .2.7.7 1.6 1 .8.3 1.2.2.9-.4-.6-1-2.5-1.4-2.5-.6zM587.6 451.8c-.3.5.1.9.9.9s1.2-.4.9-.9c-.3-.4-.7-.8-.9-.8-.2 0-.6.4-.9.8zM547.3 484.5c0 .8.4 1.2.9.9.5-.3.6-1 .3-1.5-.9-1.3-1.2-1.1-1.2.6zM619.5 499.1c-.4.6-.5 1.2-.2 1.5.2.3.7-.2 1-1.1.7-1.7.1-2-.8-.4zM611.6 499.8c-.3.5.1.9.9.9s1.2-.4.9-.9c-.3-.4-.7-.8-.9-.8-.2 0-.6.4-.9.8zM611.5 516c.3.5.8 1 1.1 1 .2 0 .4-.5.4-1 0-.6-.5-1-1.1-1-.5 0-.7.4-.4 1zM560 536c-.9.6-1 1-.3 1 .6 0 1.5-.5 1.8-1 .8-1.2.4-1.2-1.5 0zM379.5 540c.3.5.8 1 1.1 1 .2 0 .4-.5.4-1 0-.6-.5-1-1.1-1-.5 0-.7.4-.4 1zM475.6 539.8c-.3.5.1.9.9.9s1.2-.4.9-.9c-.3-.4-.7-.8-.9-.8-.2 0-.6.4-.9.8zM387 619.9c0 .6.4 1.3 1 1.6.6.3.7-.1.4-.9-.7-1.8-1.4-2.1-1.4-.7zM691.6 428.2c.3.5 1 .6 1.5.3 1.3-.9 1.1-1.2-.6-1.2-.8 0-1.2.4-.9.9zM710.9 443.7c-1.3 1.6-1.2 1.7.4.4.9-.7 1.7-1.5 1.7-1.7 0-.8-.8-.3-2.1 1.3zM731.9 464.7c-1.3 1.6-1.2 1.7.4.4.9-.7 1.7-1.5 1.7-1.7 0-.8-.8-.3-2.1 1.3zM267.4 583.4c.1.8.5 1.8.8 2.2.4.3.5-.1.4-1-.1-.8-.5-1.8-.8-2.2-.4-.3-.5.1-.4 1zM283.9 624.7c-1.3 1.6-1.2 1.7.4.4 1.6-1.3 2.1-2.1 1.3-2.1-.2 0-1 .8-1.7 1.7zM291 630.4c0 .2.8 1 1.8 1.7 1.5 1.3 1.6 1.2.3-.4s-2.1-2.1-2.1-1.3zM291 646.4c0 .2.8 1 1.8 1.7 1.5 1.3 1.6 1.2.3-.4s-2.1-2.1-2.1-1.3zM299.5 658.9c-.3.5-.2 1.2.3 1.5.5.3.9-.1.9-.9 0-1.7-.3-1.9-1.2-.6zM691.5 583.1c-.4.6-.5 1.2-.2 1.5.2.3.7-.2 1-1.1.7-1.7.1-2-.8-.4zM695 586.4c0 .2.8 1 1.8 1.7 1.5 1.3 1.6 1.2.3-.4s-2.1-2.1-2.1-1.3zM754 591.4c0 .2.8 1 1.8 1.7 1.5 1.3 1.6 1.2.3-.4s-2.1-2.1-2.1-1.3zM774.5 612c-.3.6.1.7.9.4 1.8-.7 2.1-1.4.7-1.4-.6 0-1.3.4-1.6 1zM691.4 624c0 1.3.4 1.6 1 1 .7-.7.7-1.3 0-2-.6-.6-1-.3-1 1zM694.6 643.8c-.2.4.4.8 1.4.8 1 0 1.6-.4 1.4-.8-.3-.4-.9-.8-1.4-.8-.5 0-1.1.4-1.4.8zM710.6 647.8c-.3.5.1.9.9.9s1.2-.4.9-.9c-.3-.4-.7-.8-.9-.8-.2 0-.6.4-.9.8zM135.5 440c.3.5.8 1 1.1 1 .2 0 .4-.5.4-1 0-.6-.5-1-1.1-1-.5 0-.7.4-.4 1zM236 732c-.9.6-1 1-.3 1 .6 0 1.5-.5 1.8-1 .8-1.2.4-1.2-1.5 0zM763 732.1c0 .5.5.7 1 .4.6-.3 1-.8 1-1.1 0-.2-.4-.4-1-.4-.5 0-1 .5-1 1.1zM295.4 735.1c-.3.6-.2 1.5.3 2s.9.1.9-1.1c0-2.3-.2-2.4-1.2-.9zM235.6 739.8c-.3.5.1.9.9.9s1.2-.4.9-.9c-.3-.4-.7-.8-.9-.8-.2 0-.6.4-.9.8zM243.5 740c.3.5.8 1 1.1 1 .2 0 .4-.5.4-1 0-.6-.5-1-1.1-1-.5 0-.7.4-.4 1zM663.5 740c-.3.5-.1 1 .4 1 .6 0 1.1-.5 1.1-1 0-.6-.2-1-.4-1-.3 0-.8.4-1.1 1zM762.6 740.2c.3.5 1 .6 1.5.3 1.3-.9 1.1-1.2-.6-1.2-.8 0-1.2.4-.9.9zM307.5 743.1c-.4.6-.5 1.2-.2 1.5.2.3.7-.2 1-1.1.7-1.7.1-2-.8-.4zM239.6 744.7c-.6 1.4-.5 1.5.5.6.7-.7 1-1.5.7-1.8-.3-.3-.9.2-1.2 1.2zM215 747.9c0 .6.4 1.3 1 1.6.6.3.7-.1.4-.9-.7-1.8-1.4-2.1-1.4-.7zM243.5 747.9c-.3.5-.2 1.2.3 1.5.5.3.9-.1.9-.9 0-1.7-.3-1.9-1.2-.6zM663.5 748c.3.5.8 1 1.1 1 .2 0 .4-.5.4-1 0-.6-.5-1-1.1-1-.5 0-.7.4-.4 1zM773.6 752.7c-.6 1.4-.5 1.5.5.6.7-.7 1-1.5.7-1.8-.3-.3-.9.2-1.2 1.2zM259.5 756c-.3.5-.1 1 .4 1 .6 0 1.1-.5 1.1-1 0-.6-.2-1-.4-1-.3 0-.8.4-1.1 1zM267.5 756c.3.5.8 1 1.1 1 .2 0 .4-.5.4-1 0-.6-.5-1-1.1-1-.5 0-.7.4-.4 1zM840 760c-.9.6-1 1-.3 1 .6 0 1.5-.5 1.8-1 .8-1.2.4-1.2-1.5 0zM319.5 764c-.3.5-.1 1 .4 1 .6 0 1.1-.5 1.1-1 0-.6-.2-1-.4-1-.3 0-.8.4-1.1 1zM326 763.4c0 .2.8 1 1.8 1.7 1.5 1.3 1.6 1.2.3-.4s-2.1-2.1-2.1-1.3zM702 763.4c0 .2.8 1 1.8 1.7 1.5 1.3 1.6 1.2.3-.4s-2.1-2.1-2.1-1.3zM723.6 764.2c.3.5 1 .6 1.5.3 1.3-.9 1.1-1.2-.6-1.2-.8 0-1.2.4-.9.9zM315 766.4c0 .2.8 1 1.8 1.7 1.5 1.3 1.6 1.2.3-.4s-2.1-2.1-2.1-1.3zM699.3 768.5c0 .8.4 1.2.9.9.5-.3.6-1 .3-1.5-.9-1.3-1.2-1.1-1.2.6zM651.3 771.5c0 .8.4 1.2.9.9.5-.3.6-1 .3-1.5-.9-1.3-1.2-1.1-1.2.6zM723.3 771.5c0 .8.4 1.2.9.9.5-.3.6-1 .3-1.5-.9-1.3-1.2-1.1-1.2.6zM279.5 772c-.3.5-.1 1 .4 1 .6 0 1.1-.5 1.1-1 0-.6-.2-1-.4-1-.3 0-.8.4-1.1 1zM703.5 772c.3.5.8 1 1.1 1 .2 0 .4-.5.4-1 0-.6-.5-1-1.1-1-.5 0-.7.4-.4 1zM707.6 775.8c-.3.5.1.9.9.9s1.2-.4.9-.9c-.3-.4-.7-.8-.9-.8-.2 0-.6.4-.9.8zM623.5 777.1c-.4.6-.5 1.2-.2 1.5.2.3.7-.2 1-1.1.7-1.7.1-2-.8-.4zM287 780c0 .5.5 1 1 1 .6 0 1-.5 1-1 0-.6-.4-1-1-1-.5 0-1 .4-1 1zM299.6 783.3c.3 1 .9 1.5 1.2 1.2.3-.3 0-1.1-.7-1.8-1-.9-1.1-.8-.5.6zM371 783.4c0 .2.7.7 1.6 1 .8.3 1.2.2.9-.4-.6-1-2.5-1.4-2.5-.6zM667 788c0 .5.5 1 1.1 1 .5 0 .7-.5.4-1-.3-.6-.8-1-1.1-1-.2 0-.4.4-.4 1zM367 790c0 .5.5 1 1.1 1 .5 0 .7-.5.4-1-.3-.6-.8-1-1.1-1-.2 0-.4.4-.4 1zM743.5 790.9c-.3.5-.2 1.2.3 1.5.5.3.9-.1.9-.9 0-1.7-.3-1.9-1.2-.6zM314.6 792.2c.3.5 1 .6 1.5.3 1.3-.9 1.1-1.2-.6-1.2-.8 0-1.2.4-.9.9zM614 791.4c0 .2.8 1 1.8 1.7 1.5 1.3 1.6 1.2.3-.4s-2.1-2.1-2.1-1.3zM323.5 794.9c-.3.5-.2 1.2.3 1.5.5.3.9-.1.9-.9 0-1.7-.3-1.9-1.2-.6zM683 796.1c0 .5.5.7 1 .4.6-.3 1-.8 1-1.1 0-.2-.4-.4-1-.4-.5 0-1 .5-1 1.1zM621 800c0 .5.5 1 1 1 .6 0 1-.5 1-1 0-.6-.4-1-1-1-.5 0-1 .4-1 1zM710.5 800c-.3.6.1.7.9.4 1.8-.7 2.1-1.4.7-1.4-.6 0-1.3.4-1.6 1zM655.9 810.7c-1.3 1.6-1.2 1.7.4.4.9-.7 1.7-1.5 1.7-1.7 0-.8-.8-.3-2.1 1.3zM475.5 811.9c-.3.5-.2 1.2.3 1.5.5.3.9-.1.9-.9 0-1.7-.3-1.9-1.2-.6zM583.5 815.1c-.4.6-.5 1.2-.2 1.5.2.3.7-.2 1-1.1.7-1.7.1-2-.8-.4zM514.6 819.8c-.3.5.1.9.9.9s1.2-.4.9-.9c-.3-.4-.7-.8-.9-.8-.2 0-.6.4-.9.8zM491.3 827.5c0 .8.4 1.2.9.9.5-.3.6-1 .3-1.5-.9-1.3-1.2-1.1-1.2.6zM387 851.4c0 .2.7.7 1.6 1 .8.3 1.2.2.9-.4-.6-1-2.5-1.4-2.5-.6z"/></svg>