<?xml version="1.0" standalone="no"?>
<!DOCTYPE svg PUBLIC "-//W3C//DTD SVG 20010904//EN"
 "http://www.w3.org/TR/2001/REC-SVG-20010904/DTD/svg10.dtd">
<svg version="1.0" xmlns="http://www.w3.org/2000/svg"
 width="992.000000pt" height="992.000000pt" viewBox="0 0 992.000000 992.000000"
 preserveAspectRatio="xMidYMid meet">
<metadata>
Created by potrace 1.14, written by Peter Selinger 2001-2017
</metadata>
<g transform="translate(0.000000,992.000000) scale(0.100000,-0.100000)"
fill="#000000" stroke="none">
<path d="M2407 9374 c-1 -1 -29 -4 -62 -8 -168 -16 -340 -80 -484 -178 -64
-45 -175 -152 -225 -218 -53 -71 -128 -216 -151 -290 -24 -80 -43 -194 -41
-251 0 -27 -2 -49 -7 -49 -4 0 -3 -8 2 -18 5 -10 6 -24 1 -32 -5 -8 -5 -21 0
-30 5 -9 5 -22 0 -30 -5 -8 -6 -18 -3 -24 9 -14 9 -137 0 -143 -4 -2 -4 -10 0
-16 6 -10 8 -44 3 -64 -1 -7 -1 -56 1 -188 0 -5 -1 -31 -3 -58 -2 -26 -1 -47
2 -47 3 0 4 -17 2 -37 -5 -70 -5 -224 1 -229 3 -3 2 -17 -4 -31 -6 -16 -6 -22
1 -18 7 4 7 -3 0 -19 -6 -16 -6 -26 0 -26 6 0 6 -10 0 -26 -7 -16 -7 -23 0
-19 7 4 7 -3 0 -19 -6 -17 -6 -26 1 -26 6 0 6 -7 -1 -19 -7 -13 -7 -22 0 -26
6 -4 7 -13 1 -23 -5 -9 -5 -26 -1 -37 4 -11 3 -28 -2 -37 -6 -12 -5 -18 2 -18
8 0 8 -6 0 -20 -8 -15 -8 -20 1 -20 8 0 8 -4 2 -12 -10 -13 -10 -45 1 -55 2
-3 1 -16 -5 -30 -5 -13 -5 -22 -1 -19 9 5 7 -47 -2 -63 -4 -5 -2 -13 4 -16 8
-5 8 -11 0 -20 -7 -8 -7 -16 -2 -19 6 -3 7 -20 2 -41 -4 -19 -5 -35 -1 -35 8
0 6 -58 -2 -67 -4 -3 -2 -12 4 -20 9 -9 8 -13 0 -13 -8 0 -9 -6 -2 -18 6 -11
6 -24 0 -35 -7 -12 -6 -17 1 -17 6 0 8 -5 4 -12 -11 -18 -12 -48 -2 -54 5 -3
4 -12 -2 -19 -8 -9 -8 -15 0 -20 6 -3 7 -12 3 -18 -11 -18 -12 -37 -2 -37 7 0
-4 -32 -15 -46 -1 0 5 -8 12 -17 9 -10 10 -17 2 -22 -6 -4 -7 -12 -1 -24 6
-10 6 -23 1 -31 -5 -8 -6 -19 -2 -25 9 -13 9 -37 -1 -52 -4 -6 -4 -14 1 -17 9
-5 9 -47 -1 -63 -4 -7 -3 -14 2 -17 5 -3 6 -21 1 -39 -4 -18 -3 -43 1 -55 6
-15 5 -21 -1 -17 -7 4 -7 -3 0 -19 6 -16 6 -26 0 -26 -6 0 -6 -9 0 -25 6 -16
6 -26 -1 -31 -6 -4 -6 -11 2 -20 7 -8 7 -14 1 -14 -12 0 -10 -33 3 -42 6 -5 5
-8 -3 -8 -7 0 -10 -5 -7 -10 9 -15 10 -213 2 -227 -4 -7 -3 -14 2 -18 7 -3 7
-15 1 -30 -6 -16 -5 -25 3 -29 9 -3 9 -5 0 -5 -7 -1 -10 -8 -7 -16 9 -22 10
-165 2 -165 -4 0 -3 -11 2 -25 6 -16 6 -26 -1 -31 -6 -4 -6 -11 2 -20 7 -8 7
-14 1 -14 -12 0 -10 -33 3 -42 6 -5 5 -8 -2 -8 -9 0 -10 -7 -4 -23 5 -13 5
-30 0 -39 -6 -10 -6 -19 0 -23 7 -4 7 -15 1 -30 -6 -16 -6 -25 0 -25 6 0 6 -9
0 -25 -6 -15 -6 -25 0 -25 5 0 5 -12 0 -29 -5 -19 -4 -33 3 -40 8 -8 8 -11 -1
-11 -8 0 -9 -7 -2 -25 6 -16 6 -25 0 -25 -6 0 -6 -9 -1 -22 5 -13 5 -32 1 -43
-4 -11 -3 -28 2 -37 5 -10 5 -18 1 -18 -10 0 -10 -41 1 -58 4 -7 4 -12 -1 -12
-4 0 -9 -11 -9 -25 -1 -14 1 -23 5 -21 3 2 6 -7 6 -20 0 -13 -3 -24 -7 -24 -4
0 -4 -12 -1 -27 8 -42 8 -87 0 -100 -4 -6 -4 -14 1 -17 9 -5 9 -47 -1 -63 -4
-7 -3 -14 2 -18 6 -3 7 -15 2 -28 -5 -14 -5 -30 0 -40 7 -11 6 -17 -1 -17 -7
0 -8 -6 -1 -19 6 -10 7 -21 4 -25 -11 -11 -12 -36 -2 -36 6 0 6 -7 1 -18 -10
-20 -10 -32 1 -49 4 -6 3 -14 -3 -18 -6 -4 -7 -12 -1 -24 6 -10 6 -23 1 -31
-5 -8 -6 -19 -2 -24 10 -16 10 -46 0 -52 -5 -3 -4 -12 3 -20 9 -11 9 -14 0
-14 -8 0 -9 -5 -1 -19 7 -14 7 -22 0 -26 -8 -5 -7 -11 1 -21 6 -8 7 -14 2 -14
-11 0 -9 -42 3 -61 5 -9 2 -10 -9 -6 -16 6 -16 5 -1 -18 9 -14 12 -25 7 -25
-5 0 -10 -7 -10 -15 0 -8 4 -15 8 -15 5 0 4 -11 -1 -25 -7 -17 -6 -25 1 -25 8
0 8 -4 0 -13 -8 -10 -7 -17 1 -25 7 -7 8 -12 2 -12 -6 0 -10 -10 -8 -22 1 -13
3 -23 4 -23 1 0 3 -18 5 -40 5 -84 21 -163 35 -179 5 -7 8 -15 5 -18 -3 -2 3
-27 13 -54 69 -190 225 -382 395 -485 31 -18 55 -39 53 -45 -2 -6 2 -11 10
-11 7 0 11 4 9 8 -3 4 6 2 20 -4 14 -7 25 -15 25 -19 0 -5 7 -8 15 -8 8 0 23
-4 33 -9 45 -23 119 -47 177 -57 22 -4 49 -9 60 -11 11 -2 48 -6 82 -8 34 -2
67 -6 73 -10 5 -3 10 -2 10 4 0 10 18 10 37 -2 6 -4 15 -3 18 3 5 8 11 8 20 0
7 -6 16 -7 18 -3 5 7 51 9 67 3 14 -6 36 -4 47 3 6 4 14 3 18 -3 3 -6 12 -7
18 -3 18 11 36 12 43 2 3 -5 13 -5 25 1 13 8 19 7 19 0 0 -7 6 -8 18 -2 9 5
26 6 37 2 11 -4 26 -3 33 2 8 7 12 7 12 -1 0 -9 5 -9 20 -1 11 6 20 7 20 3 0
-4 11 -8 25 -8 14 0 25 4 25 8 0 4 8 3 18 -2 11 -6 24 -6 32 -1 9 5 19 5 26
-1 8 -7 14 -6 19 1 4 6 12 7 18 3 14 -10 38 -10 52 -1 6 4 17 3 24 -2 8 -4 27
-4 43 0 15 5 26 5 23 0 -3 -4 6 -7 19 -6 13 0 22 4 19 9 -2 4 0 7 6 7 5 0 13
-5 16 -10 5 -8 11 -8 20 0 10 8 15 8 20 0 5 -8 10 -8 20 0 10 8 15 8 20 0 5
-8 10 -8 20 0 9 7 15 7 19 1 6 -10 37 -8 55 4 5 3 13 1 16 -5 5 -8 11 -7 21 1
11 9 14 9 14 0 0 -8 5 -9 19 -1 14 7 22 7 26 0 5 -8 11 -8 20 0 10 8 19 8 34
0 12 -6 21 -7 21 -3 0 9 158 8 167 -1 4 -3 12 -1 20 5 9 8 17 8 26 0 10 -8 17
-7 25 1 9 9 12 9 12 0 0 -9 5 -10 18 -3 13 7 22 7 29 0 8 -8 13 -7 17 0 5 8
13 8 27 1 14 -8 19 -7 19 1 0 9 3 9 14 0 9 -7 17 -8 20 -3 3 6 20 7 41 2 22
-5 35 -4 35 2 0 7 4 7 13 0 8 -7 18 -7 27 -2 8 5 21 5 30 0 9 -5 22 -5 30 0 9
5 19 5 26 -1 8 -7 14 -6 19 1 3 6 11 8 16 4 16 -9 70 -11 75 -2 3 4 16 3 30
-2 17 -7 23 -7 19 0 -8 13 1 13 26 0 10 -6 19 -7 19 -3 0 9 77 9 86 0 3 -3 17
-2 31 4 16 6 22 6 18 -1 -4 -6 2 -7 17 -2 13 4 34 7 48 5 22 -2 46 -3 103 -3
9 0 23 0 30 0 6 0 26 1 42 3 17 1 40 -1 51 -5 12 -4 25 -4 28 -1 6 6 118 8
141 3 6 -1 15 -1 20 0 6 1 37 1 70 1 80 -1 78 -1 129 0 24 1 48 -1 55 -5 6 -4
11 -3 11 3 0 6 11 6 30 1 17 -5 30 -6 30 -2 0 8 86 6 99 -3 5 -3 13 -1 16 5 5
8 11 8 20 0 9 -8 15 -8 20 0 3 6 11 8 16 4 15 -9 128 -10 122 -1 -7 11 12 8
24 -4 7 -7 13 -8 17 0 4 7 15 7 31 1 15 -6 27 -6 30 1 4 5 11 7 16 3 16 -10
69 -11 69 -2 0 5 8 4 19 -1 10 -6 21 -7 25 -4 10 11 36 12 36 2 0 -5 11 -4 25
1 16 6 25 6 25 -1 0 -6 7 -6 20 1 11 6 20 7 20 2 0 -10 36 -9 46 1 4 4 13 2
20 -4 8 -7 14 -7 18 0 4 6 15 7 30 1 15 -5 27 -5 34 2 6 6 12 6 16 -1 4 -7 15
-7 31 -1 16 6 27 6 31 -1 3 -6 10 -6 17 -1 7 5 21 6 32 2 11 -4 28 -4 37 1 9
5 19 6 22 1 4 -6 61 -8 61 -2 0 7 64 5 78 -2 11 -6 17 -5 17 2 0 7 7 7 21 -1
16 -8 23 -8 29 1 6 9 9 9 15 1 5 -9 10 -9 20 -1 8 7 15 7 19 1 7 -10 24 -10
43 2 6 4 15 3 18 -3 5 -8 11 -8 20 0 10 8 15 8 20 0 5 -8 10 -8 20 0 10 8 15
8 20 0 5 -8 11 -8 21 1 11 9 17 9 28 0 10 -9 16 -9 21 -1 5 8 10 8 20 0 9 -8
15 -8 20 0 4 7 12 7 26 0 14 -8 19 -7 19 1 0 8 5 7 17 -2 9 -8 17 -14 17 -13
12 10 47 23 42 16 -3 -6 4 -9 18 -8 13 0 22 4 19 9 -2 4 1 7 6 7 6 0 11 -5 11
-10 0 -7 6 -7 20 0 11 6 20 7 20 3 0 -4 11 -8 25 -8 14 0 25 4 25 8 0 4 8 3
18 -2 11 -6 24 -6 35 0 11 7 17 6 17 -1 0 -7 6 -8 19 0 11 5 22 6 25 2 6 -10
36 -9 52 0 5 4 16 3 24 -2 9 -5 19 -5 26 1 8 7 14 6 19 -1 4 -7 12 -7 26 0 10
6 19 7 19 2 0 -5 7 -9 15 -9 8 0 15 3 15 7 0 3 9 6 20 6 11 0 20 -4 20 -9 0
-4 4 -5 10 -2 5 3 31 8 57 10 50 5 90 11 133 20 14 3 35 7 47 9 12 3 31 10 43
16 12 6 28 9 36 6 9 -3 12 -1 9 4 -5 9 15 15 38 11 4 0 7 3 7 7 0 5 18 15 40
22 22 7 40 17 40 22 0 4 9 8 19 8 11 0 21 4 23 8 2 5 28 25 58 45 30 20 80 59
110 87 30 27 58 50 62 50 5 0 8 4 8 10 0 5 22 38 50 71 45 57 138 224 144 259
1 8 8 25 14 37 7 13 10 23 8 23 -3 0 -2 10 3 23 8 20 19 87 25 147 1 9 5 20 9
26 3 6 4 14 0 18 -10 9 -10 56 0 56 4 0 3 8 -2 18 -6 11 -6 24 -1 32 5 9 5 19
-2 27 -7 8 -7 13 0 13 12 0 10 33 -3 42 -7 5 -6 8 1 8 11 0 11 51 0 69 -4 5
-2 13 4 16 8 5 7 11 -1 21 -9 11 -9 14 0 14 8 0 9 5 1 19 -7 14 -7 22 0 26 8
5 7 11 -1 21 -6 8 -7 14 -2 14 11 0 11 29 -1 48 -7 11 -1 16 17 13 4 -1 0 10
-9 24 -9 14 -12 25 -6 25 11 0 11 18 -1 37 -4 6 -3 14 1 17 10 6 9 36 -1 53
-4 6 -3 14 3 18 6 4 7 12 1 24 -6 10 -6 23 -1 31 5 8 6 19 2 25 -9 13 -9 37 1
52 4 6 4 14 -1 17 -9 5 -9 47 1 63 4 7 3 14 -2 18 -7 3 -7 15 -1 30 5 13 6 26
2 29 -9 5 -6 81 3 96 3 6 1 10 -6 10 -7 0 -8 5 -3 13 11 15 11 38 1 55 -5 6
-4 12 2 12 7 0 7 8 1 25 -6 16 -6 25 0 25 6 0 6 10 0 26 -7 18 -7 23 1 18 8
-4 8 -1 1 13 -7 12 -7 25 -1 36 7 12 6 17 -2 17 -9 0 -9 3 0 14 8 10 9 16 1
21 -7 4 -7 12 0 26 8 14 7 19 -2 19 -8 0 -9 3 -3 8 12 8 13 32 2 50 -5 6 -4
12 2 12 7 0 7 8 1 25 -5 14 -6 25 -1 25 10 0 9 19 -2 37 -4 6 -3 14 1 17 10 6
9 36 -1 53 -4 6 -3 14 3 18 6 4 7 12 1 24 -6 10 -6 23 -1 31 5 8 6 19 2 24 -9
16 -10 46 0 52 4 3 5 10 1 17 -10 16 -10 58 -1 63 5 3 5 10 1 17 -10 16 -10
58 0 64 4 2 3 11 -4 19 -9 11 -9 14 0 14 8 0 9 5 1 19 -7 14 -7 22 0 26 8 5 7
11 -1 21 -6 8 -7 14 -2 14 11 0 11 29 -1 48 -4 6 -3 12 3 12 7 0 7 8 1 25 -5
14 -6 25 -1 25 10 0 9 19 -2 37 -4 6 -3 14 1 17 10 6 9 36 -1 53 -4 6 -3 14 3
18 6 4 7 12 1 24 -6 10 -6 23 -1 31 5 8 6 19 2 25 -9 13 -9 37 1 52 4 6 4 14
-1 17 -9 5 -9 47 1 63 4 7 3 14 -2 17 -4 3 -5 24 -1 46 4 23 3 43 -2 46 -5 4
-5 10 0 17 5 7 6 21 2 32 -4 11 -4 28 1 37 5 9 5 19 1 22 -9 5 -8 64 1 73 3 3
2 16 -4 30 -5 13 -6 22 -1 20 9 -6 8 56 -2 71 -3 6 -3 13 2 16 9 5 9 53 -1 62
-3 3 -2 17 3 30 6 16 6 24 -1 24 -6 0 -6 7 1 20 8 14 8 20 0 20 -6 0 -8 5 -4
12 9 14 12 58 4 58 -7 0 -3 116 4 129 4 5 2 13 -4 16 -7 5 -8 11 -1 19 6 7 6
17 1 26 -5 8 -5 21 1 32 7 12 6 18 -1 18 -7 0 -8 6 0 19 6 13 7 22 0 26 -6 4
-6 15 0 30 5 14 6 25 1 25 -9 0 -8 37 2 46 4 4 2 13 -4 21 -9 9 -8 13 0 13 9
0 9 5 1 20 -8 14 -8 20 0 20 7 0 8 6 2 16 -5 9 -6 33 -2 54 4 22 3 43 -2 48
-6 6 -6 12 1 16 8 5 8 13 1 27 -7 12 -7 19 -1 19 7 0 7 9 1 26 -7 16 -7 23 0
19 13 -8 13 1 0 25 -7 13 -7 21 0 25 7 4 7 13 0 26 -7 12 -7 19 -1 19 7 0 7 8
1 24 -5 13 -6 27 -3 30 5 5 8 216 3 224 -5 7 -3 60 3 75 3 9 2 19 -3 22 -5 3
-6 15 -1 28 5 12 5 34 0 49 -4 16 -4 28 1 28 5 0 6 10 1 22 -4 12 -5 39 -1 60
4 21 4 38 -1 38 -4 0 -4 14 1 30 5 17 5 30 0 30 -5 0 -5 12 -1 28 4 15 4 39 0
55 -4 15 -4 27 1 27 5 0 5 12 1 27 -4 14 -4 48 -1 75 4 26 4 48 1 48 -3 0 -6
28 -7 63 -2 131 -33 255 -96 382 -95 193 -256 352 -453 449 -92 46 -259 100
-281 92 -7 -3 -15 -2 -18 2 -4 3 -14 8 -24 10 -15 3 -5191 9 -5195 6z m628
-645 c9 -9 11 -149 2 -149 -5 0 -5 -4 -2 -10 5 -9 10 -107 5 -120 -6 -18 -4
-62 2 -66 5 -3 5 -10 2 -16 -11 -17 -10 -128 1 -129 6 0 5 -3 -1 -5 -8 -3 -9
-16 -4 -40 5 -19 4 -37 -1 -40 -5 -3 -7 -10 -4 -15 8 -12 12 -99 4 -99 -3 0
-4 -15 -2 -32 5 -54 5 -82 -1 -105 -2 -13 0 -25 5 -28 5 -4 7 -10 4 -15 -3 -4
-221 -8 -486 -8 -265 -1 -479 2 -476 4 3 3 1 19 -3 35 -5 16 -5 27 -1 25 10
-6 7 57 -3 73 -4 6 -4 11 1 11 4 0 8 11 8 25 0 14 -3 25 -7 25 -4 0 -4 10 1
23 5 12 5 32 0 44 -5 13 -4 25 1 28 6 3 6 15 0 29 -5 13 -7 26 -5 28 5 5 6 36
5 148 -1 96 16 161 61 226 53 77 152 138 249 153 55 8 636 8 645 0z m3206 -17
c5 -13 5 -22 -1 -22 -6 0 -6 -9 -1 -22 5 -13 5 -33 0 -45 -4 -12 -5 -24 -1
-27 9 -5 8 -59 -2 -74 -3 -6 -2 -13 4 -17 7 -4 7 -12 0 -25 -7 -13 -7 -21 0
-25 7 -4 7 -12 0 -25 -7 -13 -7 -21 0 -25 7 -4 7 -12 0 -25 -7 -13 -7 -21 0
-25 6 -4 7 -13 1 -23 -5 -9 -5 -26 -1 -37 4 -11 3 -28 -2 -37 -6 -12 -5 -18 2
-18 8 0 8 -6 0 -20 -8 -14 -8 -20 0 -20 6 0 8 -5 3 -12 -12 -20 -12 -37 -1
-44 7 -4 6 -9 -2 -14 -9 -6 -9 -13 -1 -29 7 -12 8 -21 2 -21 -10 0 -9 -19 2
-37 4 -6 3 -14 -3 -18 -6 -4 -8 -11 -4 -16 8 -14 8 -114 0 -128 -4 -6 -3 -11
2 -11 10 0 9 -36 -1 -46 -3 -4 -4 -11 0 -17 8 -13 10 -97 2 -97 -8 0 -5 -32 4
-47 4 -6 3 -14 -3 -18 -7 -4 -7 -12 -1 -23 6 -10 6 -23 0 -34 -6 -11 -5 -19 2
-24 8 -5 8 -8 0 -13 -7 -5 -8 -17 -2 -37 5 -18 5 -37 0 -47 -6 -10 -5 -18 1
-22 7 -4 7 -12 0 -25 -6 -11 -6 -21 -1 -24 5 -3 5 -21 1 -41 -5 -21 -4 -38 2
-41 6 -4 6 -10 -1 -17 -6 -6 -7 -16 -1 -27 5 -9 5 -22 -1 -31 -11 -17 -12 -32
-1 -25 9 5 6 -69 -3 -84 -3 -6 -1 -10 6 -10 8 0 9 -3 0 -13 -6 -8 -8 -16 -5
-20 10 -10 12 -57 2 -63 -5 -3 -5 -11 1 -18 6 -7 6 -17 1 -26 -12 -18 -13 -33
-2 -27 4 3 7 -6 7 -19 0 -13 -3 -24 -6 -24 -3 0 -4 -17 -1 -37 2 -21 4 -42 4
-48 1 -5 -2 -21 -6 -34 -5 -14 -4 -21 1 -18 10 6 9 -45 -1 -62 -4 -5 -2 -13 4
-16 8 -5 7 -11 -1 -21 -9 -11 -9 -17 0 -28 8 -10 9 -16 1 -21 -6 -4 -7 -12 -1
-24 5 -9 6 -23 1 -31 -4 -7 -4 -24 0 -36 6 -15 5 -26 -1 -30 -7 -4 -6 -10 1
-19 8 -10 8 -15 0 -20 -7 -5 -8 -11 -1 -19 5 -6 6 -17 2 -25 -4 -7 -5 -30 -1
-52 l7 -39 -81 -1 c-44 0 -622 -1 -1284 -2 -1141 -2 -1203 -1 -1198 16 2 9 -1
17 -7 18 -7 0 -8 2 -2 5 10 4 12 70 2 80 -3 3 -2 17 3 30 6 14 6 26 0 29 -6 3
-5 16 0 31 12 31 12 37 2 30 -4 -2 -7 8 -6 22 1 15 3 27 4 27 1 0 3 12 4 28 1
15 -1 27 -4 27 -7 0 -4 66 5 79 3 6 0 11 -7 12 -10 0 -10 2 -1 6 9 3 10 10 4
22 -6 10 -6 23 0 32 11 18 12 32 0 25 -4 -3 -5 12 -1 34 4 24 3 43 -3 49 -8 8
-8 11 0 11 13 0 12 32 -2 42 -6 5 -5 8 2 8 9 0 10 7 4 23 -5 14 -5 30 0 40 7
11 6 17 -1 17 -6 0 -8 5 -3 13 11 18 12 37 2 37 -6 0 -7 6 -2 13 10 16 13 37
4 37 -4 0 -7 9 -7 20 0 11 4 20 8 20 5 0 4 9 -2 19 -7 14 -7 22 0 26 8 5 7 11
-1 21 -9 11 -9 14 0 14 8 0 9 5 1 19 -7 14 -7 22 0 26 8 5 8 11 0 20 -8 10 -8
15 0 20 8 5 8 10 0 20 -8 10 -8 15 0 20 8 5 8 10 0 20 -8 10 -8 15 0 20 8 5 8
10 0 20 -7 8 -7 15 -1 19 10 7 10 24 -2 43 -4 6 -2 13 4 15 9 3 9 9 0 26 -7
14 -8 22 -2 22 7 0 7 9 2 22 -4 13 -5 35 0 50 4 16 3 30 -2 34 -6 4 -6 11 2
20 9 11 9 17 -1 29 -7 8 -8 15 -3 15 5 0 9 9 9 20 0 11 -3 20 -6 20 -9 0 -6
32 3 47 4 6 3 14 -3 18 -7 4 -7 12 0 26 8 14 7 19 -1 19 -9 0 -9 3 0 14 8 10
9 16 1 21 -6 4 -7 13 -2 23 9 18 8 59 -1 68 -3 3 -2 17 3 30 6 14 6 26 0 29
-6 3 -6 15 0 30 6 16 6 25 -1 25 -6 0 -6 7 1 20 8 15 8 20 -1 20 -8 0 -9 4 0
13 6 8 8 17 5 20 -9 9 -11 357 -2 357 4 0 4 10 -1 23 -5 14 -5 30 0 40 6 9 6
17 2 17 -6 0 -9 65 -4 65 1 0 575 0 1277 0 l1277 0 8 -23z m1358 -1 c139 -56
227 -162 237 -285 8 -91 7 -310 0 -334 -4 -11 -2 -23 4 -27 6 -3 7 -12 3 -18
-6 -10 -8 -85 -2 -113 1 -5 0 -11 -1 -14 -6 -17 -5 -50 2 -50 5 0 7 -4 4 -9
-3 -4 -221 -9 -485 -9 l-479 -2 2 30 c1 17 -1 30 -6 30 -4 0 -4 10 1 23 5 12
5 31 1 42 -6 17 -5 26 11 55 1 3 -3 15 -9 26 -6 12 -8 24 -5 28 10 10 11 46 2
46 -5 0 -4 11 1 25 6 15 6 26 -1 30 -5 4 -7 10 -5 14 5 8 7 53 5 111 0 19 0
37 1 40 6 16 5 62 -2 66 -4 3 -5 11 -2 19 7 18 11 125 4 125 -4 0 -4 78 -1
160 1 14 41 15 334 14 317 -1 334 -2 386 -23z m-4561 -1513 c0 -7 2 -22 2 -33
1 -11 0 -37 -3 -57 -4 -23 -2 -38 4 -38 6 0 7 -6 1 -16 -5 -9 -7 -26 -4 -37 4
-15 2 -18 -9 -13 -8 4 -6 1 3 -7 10 -8 15 -17 12 -20 -10 -9 -11 -67 -1 -67 4
0 5 -6 1 -12 -11 -18 -12 -48 -2 -48 5 0 6 -5 2 -11 -10 -16 -11 -89 -1 -89 5
0 5 -5 1 -11 -10 -17 -11 -52 -2 -71 5 -10 5 -18 0 -18 -10 0 -9 -30 2 -48 4
-6 3 -12 -2 -12 -4 0 -7 -17 -5 -37 7 -70 8 -173 2 -173 -3 0 -4 -11 -2 -23 3
-15 0 -24 -9 -25 -7 0 -22 -1 -33 -2 -11 -1 -72 -1 -135 -1 -63 0 -122 0 -130
0 -8 0 -71 0 -140 0 -69 0 -132 0 -140 0 -22 -1 -150 0 -189 1 -19 0 -38 3
-42 6 -4 2 -10 1 -12 -3 -3 -5 -32 -6 -65 -5 -57 3 -60 5 -57 28 1 13 -2 24
-7 24 -5 0 -6 5 -2 12 10 17 11 58 2 64 -5 3 -5 10 -1 17 10 17 10 57 0 57 -5
0 -4 6 2 14 9 11 9 20 2 34 -6 11 -8 21 -6 24 9 9 13 88 4 88 -4 0 -6 6 -4 13
11 27 11 97 1 97 -8 0 -8 3 -1 8 11 8 12 43 1 60 -3 6 -2 13 3 17 6 3 7 15 2
28 -5 12 -5 34 0 49 5 19 4 28 -4 28 -8 0 -8 3 0 11 7 7 8 21 3 40 -5 16 -5
29 0 29 5 0 7 15 4 33 -5 33 -6 38 -3 82 l2 25 477 0 c374 0 477 -3 478 -12z
m4805 -7 c3 -11 2 -22 -1 -26 -9 -9 -9 -65 0 -65 4 0 3 -12 -3 -27 -6 -16 -9
-30 -8 -33 8 -18 16 -70 10 -70 -9 0 -7 -42 2 -57 4 -7 3 -14 -2 -18 -7 -3 -7
-15 -1 -29 5 -13 7 -26 4 -28 -9 -9 -12 -88 -3 -88 5 0 4 -11 -1 -25 -6 -17
-6 -25 1 -25 6 0 7 -5 4 -11 -11 -16 -12 -69 -2 -69 4 0 5 -5 1 -11 -11 -18
-12 -93 -1 -106 5 -7 5 -13 0 -13 -10 0 -10 -46 0 -56 4 -4 3 -12 -1 -18 -10
-16 -8 -66 3 -66 5 0 5 -4 -1 -10 -6 -6 -51 -10 -100 -10 -49 0 -116 0 -149 0
-33 -1 -64 -1 -70 -1 -5 0 -75 0 -155 0 -80 0 -152 0 -160 0 -8 0 -74 0 -147
1 -73 1 -136 0 -140 -3 -15 -9 -55 12 -46 25 10 18 11 88 0 88 -4 0 -5 5 -1
12 10 16 11 56 3 70 -4 6 -3 24 1 39 5 18 5 29 -1 29 -6 0 -7 5 -3 11 9 15 11
89 3 89 -4 0 -4 15 0 33 8 41 7 69 -2 85 -5 6 -4 12 1 12 10 0 9 30 -1 47 -4
6 -3 14 2 18 6 3 7 15 2 28 -5 12 -5 34 0 49 5 17 4 28 -2 28 -6 0 -8 4 -5 8
9 15 11 116 3 130 -5 6 -4 12 1 12 10 0 10 30 -1 46 -3 6 -4 14 0 18 3 3 221
6 484 6 464 0 477 -1 482 -19z m-5611 -1519 c-1 -8 2 -11 8 -7 6 3 8 10 5 15
-10 16 60 7 73 -9 11 -14 11 -14 6 1 -5 15 5 16 93 15 75 -2 97 -5 95 -15 -1
-8 2 -11 8 -7 6 3 8 10 5 14 -2 5 36 9 85 9 64 0 88 -4 83 -12 -5 -8 -3 -8 8
0 8 7 65 12 148 12 115 1 137 -2 148 -16 12 -16 13 -15 7 2 -5 14 -3 17 12 14
17 -3 22 -15 25 -63 0 -5 -1 -25 -4 -42 -2 -18 -2 -33 2 -33 6 0 5 -68 -2
-135 -2 -16 1 -36 6 -42 6 -8 6 -13 0 -13 -11 0 -11 -36 0 -46 4 -4 2 -13 -4
-20 -7 -9 -7 -19 1 -33 6 -12 7 -21 3 -21 -4 0 -8 -20 -8 -45 0 -25 3 -45 8
-45 4 0 5 -5 2 -11 -11 -17 -13 -59 -3 -65 4 -3 6 -9 4 -13 -11 -17 -14 -61
-5 -67 6 -4 6 -11 -1 -19 -8 -10 -8 -19 0 -34 6 -12 7 -21 2 -21 -7 0 -8 -55
-2 -85 1 -5 2 -14 1 -20 -1 -14 -331 -14 -331 0 0 7 -3 7 -8 0 -4 -6 -16 -11
-27 -11 -11 0 -23 5 -27 11 -5 6 -8 6 -8 0 0 -6 -100 -10 -279 -10 l-278 -1 1
38 c1 21 -2 38 -6 38 -5 0 -5 8 0 18 5 9 6 26 2 37 -4 11 -4 30 1 41 4 13 3
26 -4 33 -6 6 -7 11 -2 11 6 0 10 11 10 25 0 14 -3 25 -7 25 -4 0 -3 13 2 29
5 19 4 33 -3 40 -8 8 -7 11 2 11 8 0 11 6 7 16 -4 9 -1 24 6 32 10 12 10 14 1
8 -12 -7 -18 6 -13 29 6 31 4 125 -3 125 -5 0 -5 5 -2 11 11 16 13 59 4 59 -5
0 -4 11 1 25 6 15 6 26 -1 30 -5 4 -6 12 -2 18 9 15 12 47 4 47 -3 0 -5 21 -3
47 1 27 3 57 3 69 1 20 7 21 78 20 57 -1 75 -4 73 -14z m1640 4 c6 -8 8 -8 8
0 0 9 306 12 1178 12 647 0 1180 -2 1185 -5 4 -2 2 -13 -3 -24 -8 -14 -7 -19
2 -20 7 0 9 -2 3 -5 -10 -4 -12 -70 -2 -80 3 -3 2 -17 -4 -31 -12 -31 -11 -36
1 -28 7 4 7 -3 0 -19 -7 -19 -6 -26 3 -27 9 0 9 -2 0 -6 -9 -3 -10 -10 -3 -24
7 -13 7 -19 1 -19 -7 0 -7 -8 -2 -23 6 -14 5 -30 -1 -41 -6 -10 -6 -21 -2 -25
11 -8 12 -81 1 -81 -4 0 -3 -9 3 -19 7 -14 7 -22 0 -26 -8 -5 -8 -11 -1 -19 6
-7 8 -16 4 -20 -10 -10 -11 -46 -1 -52 5 -3 1 -15 -9 -27 -10 -11 -13 -17 -6
-14 16 10 24 -5 13 -23 -5 -9 -5 -19 2 -27 6 -7 6 -13 1 -13 -10 0 -10 -41 1
-58 4 -7 3 -12 -2 -12 -13 0 -10 -33 3 -42 7 -5 6 -8 0 -8 -6 0 -11 -9 -11
-20 0 -11 3 -20 6 -20 9 0 6 -38 -3 -46 -4 -4 -2 -13 4 -20 7 -8 7 -14 -1 -19
-8 -5 -8 -11 1 -21 9 -11 9 -14 0 -14 -9 0 -9 -5 -1 -20 6 -11 7 -20 2 -20
-10 0 -9 -30 2 -48 4 -6 3 -12 -3 -12 -7 0 -7 -8 -2 -23 5 -13 5 -30 1 -37 -5
-8 -5 -19 1 -26 7 -8 7 -14 0 -18 -9 -6 -7 -43 3 -53 3 -3 1 -16 -4 -29 -6
-16 -6 -24 1 -24 6 0 7 -6 2 -12 -11 -19 -12 -38 -2 -38 6 0 5 -9 -2 -21 -8
-16 -8 -20 1 -14 9 6 9 3 1 -13 -14 -26 -14 -35 0 -26 8 4 8 0 0 -15 -9 -16
-9 -21 1 -22 10 0 10 -2 1 -6 -9 -3 -10 -10 -3 -24 6 -10 7 -19 3 -19 -10 0
-10 -41 0 -57 4 -7 3 -15 -3 -18 -8 -5 -7 -11 1 -21 6 -8 7 -14 2 -14 -5 0 -9
-9 -9 -20 0 -11 4 -20 8 -20 4 0 4 -10 -1 -23 -5 -13 -5 -30 0 -39 6 -11 5
-19 -1 -23 -7 -4 -7 -12 0 -25 7 -13 7 -21 0 -25 -6 -3 -7 -14 -2 -23 9 -21 9
-43 -1 -59 -4 -6 -4 -14 1 -17 9 -5 9 -47 -1 -63 -4 -7 -3 -14 3 -18 5 -3 7
-14 2 -23 -9 -21 -9 -53 1 -69 4 -6 3 -14 -3 -18 -7 -4 -7 -12 0 -25 7 -13 7
-21 0 -25 -7 -4 -7 -13 0 -26 8 -13 7 -19 0 -19 -8 0 -8 -6 0 -20 6 -12 7 -20
1 -20 -10 0 -9 -19 2 -37 4 -6 3 -14 -3 -18 -7 -4 -7 -12 -1 -23 6 -10 6 -24
-1 -35 -7 -15 -7 -18 2 -12 9 6 9 2 1 -14 -9 -16 -9 -21 1 -22 9 0 10 -2 1 -5
-7 -3 -10 -11 -7 -18 4 -10 -12 -14 -62 -15 -37 -1 -71 -4 -76 -7 -4 -3 -8 -1
-8 4 0 5 -17 7 -37 6 -35 -4 -75 -4 -210 -2 -28 0 -56 -3 -62 -7 -6 -3 -11 -2
-11 4 0 5 -10 8 -22 6 -19 -4 -87 -6 -138 -4 -8 0 -307 0 -665 0 -357 0 -674
0 -703 1 -29 0 -55 -1 -57 -4 -3 -3 -20 -2 -38 1 -18 4 -49 4 -69 0 -21 -3
-40 -4 -43 -1 -8 9 -175 8 -175 -1 0 -5 -5 -5 -11 -1 -6 3 -46 6 -90 6 -44 0
-77 3 -74 8 3 5 1 12 -5 15 -7 5 -8 11 -1 19 6 7 6 17 1 26 -5 8 -5 21 1 32 6
12 6 18 0 18 -6 0 -6 11 -1 30 5 16 5 32 1 35 -4 2 -5 26 -1 52 5 27 4 49 -1
51 -5 2 -7 8 -3 13 10 18 13 49 3 49 -6 0 -6 7 1 19 7 14 7 22 0 26 -8 5 -8
11 0 20 7 9 8 15 1 19 -7 4 -7 15 -1 30 5 13 6 26 3 30 -8 8 -8 70 0 83 4 6 3
14 -3 18 -7 4 -7 12 0 25 12 22 13 33 3 27 -5 -3 -8 6 -8 19 0 13 2 24 5 24 8
0 5 48 -3 56 -3 4 -2 15 4 25 7 14 6 19 -2 19 -8 0 -8 4 1 15 9 11 10 18 1 28
-6 8 -8 17 -4 20 10 11 10 57 0 57 -5 0 -4 7 3 15 9 11 10 18 1 28 -6 8 -8 17
-4 21 10 10 13 36 4 36 -9 0 -8 31 2 47 4 6 3 15 -3 18 -8 5 -8 11 0 20 8 10
8 15 0 20 -8 5 -8 10 0 20 7 8 7 15 1 19 -6 4 -6 18 -1 34 4 16 4 36 -2 45 -5
10 -5 17 -1 17 10 0 10 41 -1 58 -4 7 -3 12 2 12 13 0 10 33 -3 42 -6 5 -5 8
3 8 9 0 10 5 3 17 -5 10 -5 26 -1 39 5 12 6 24 3 27 -9 9 -9 78 0 84 4 3 3 11
-4 19 -9 11 -9 14 0 14 9 0 9 5 1 20 -8 14 -8 20 0 20 7 0 8 6 2 16 -5 9 -6
31 -2 49 4 18 3 39 -1 48 -6 10 -5 18 1 22 7 4 7 13 0 26 -6 10 -7 19 -2 19 4
0 8 9 8 20 0 11 -4 20 -8 20 -5 0 -4 9 2 20 8 15 8 20 -2 20 -9 0 -9 3 0 12 7
7 8 17 1 30 -5 10 -6 18 -1 18 4 0 8 9 8 20 0 11 -3 20 -6 20 -3 0 -6 9 -6 20
0 11 4 20 8 20 5 0 4 9 -2 19 -7 14 -7 22 0 26 8 5 7 11 -1 21 -9 11 -9 14 0
14 8 0 9 5 2 19 -6 10 -7 21 -4 25 11 10 10 76 -1 76 -6 0 -5 5 1 11 8 8 8 20
3 35 -6 15 -6 24 0 24 6 0 6 9 0 25 -6 16 -6 26 1 31 6 4 6 11 -2 20 -9 11 -9
14 0 14 7 0 9 5 6 10 -3 6 -4 14 0 19 8 13 178 10 187 -3z m3127 1 c10 -8 13
-8 8 -1 -5 8 19 12 83 12 64 0 88 -4 83 -12 -5 -8 -3 -8 8 0 8 7 65 12 148 12
115 1 137 -2 148 -16 12 -15 12 -15 7 -1 -5 15 12 17 176 17 149 -1 180 -3
176 -14 -3 -8 -1 -14 5 -14 6 0 7 -5 3 -12 -10 -16 -11 -99 -1 -120 4 -10 4
-18 -2 -18 -5 0 -6 -14 -1 -33 4 -18 3 -43 -1 -55 -5 -12 -4 -24 2 -27 5 -4 6
-12 2 -18 -9 -15 -12 -47 -4 -47 3 0 5 -24 3 -52 -2 -29 -3 -60 -3 -68 2 -52
0 -114 -4 -118 -2 -2 0 -14 4 -26 5 -11 5 -30 1 -41 -4 -11 -3 -26 2 -32 7 -9
7 -13 0 -13 -11 0 -9 -31 3 -50 3 -6 3 -10 -2 -10 -9 0 -10 -71 -1 -86 4 -5 4
-14 0 -19 -9 -13 -273 -14 -265 -2 4 6 1 7 -8 1 -19 -12 -239 -13 -232 0 4 5
1 6 -8 0 -8 -4 -111 -9 -230 -9 l-217 -1 3 43 c2 27 -1 40 -8 36 -5 -3 -7 -2
-4 4 10 15 16 63 9 63 -4 0 -6 19 -4 42 1 24 3 50 2 58 0 19 1 63 4 113 1 20
-2 37 -7 37 -4 0 -5 6 -1 12 11 18 12 48 2 54 -4 3 -5 11 -1 17 11 18 11 47
-1 47 -6 0 -6 4 1 11 8 8 8 20 3 34 -5 13 -7 25 -4 27 8 8 9 93 1 106 -5 6 -5
12 0 12 4 0 8 11 8 25 0 14 -4 25 -9 25 -5 0 -3 6 3 14 8 10 9 21 3 33 -5 10
-7 25 -5 33 3 8 6 20 8 27 2 6 24 11 52 11 26 0 54 -5 62 -11z m-4777 -1521
c-3 -5 1 -5 9 0 19 11 141 12 157 1 7 -6 12 -6 12 0 0 5 15 8 34 8 19 0 32 -4
28 -9 -3 -5 1 -6 9 -1 17 11 469 13 469 2 0 -5 6 -5 12 -1 19 12 48 12 48 1 0
-5 6 -4 14 2 12 10 17 8 25 -6 5 -11 6 -25 1 -32 -4 -8 -4 -26 0 -42 5 -15 6
-30 3 -33 -9 -9 -9 -111 0 -123 6 -8 6 -13 0 -13 -10 0 -10 -46 0 -56 4 -4 3
-12 0 -18 -10 -16 -11 -46 -1 -46 5 0 4 -8 -1 -18 -5 -10 -6 -24 -1 -31 4 -8
4 -27 0 -42 -5 -17 -5 -31 1 -35 6 -3 6 -11 1 -17 -4 -7 -7 -23 -5 -37 5 -31
4 -50 -1 -75 -2 -11 1 -26 7 -32 6 -9 6 -13 -1 -13 -7 0 -9 -13 -6 -32 3 -18
5 -39 5 -45 -1 -7 -2 -42 -2 -78 -1 -39 -6 -62 -12 -58 -13 8 -367 10 -367 2
0 -3 -13 -4 -30 -1 -19 3 -27 8 -23 16 5 8 3 8 -8 0 -22 -18 -224 -10 -274 10
-22 9 -48 19 -57 23 -10 3 -18 9 -18 14 0 5 -7 9 -15 9 -8 0 -15 5 -15 10 0 6
-5 10 -10 10 -27 0 -111 122 -115 168 -1 15 -7 38 -13 52 -5 14 -7 31 -4 38 8
21 7 116 -2 130 -4 7 -3 12 1 12 10 0 10 47 0 56 -3 3 -2 17 3 30 6 14 6 26
-1 29 -5 4 -6 12 -2 18 9 15 12 47 4 47 -3 0 -5 24 -3 52 2 29 3 60 3 68 -2
62 0 84 8 89 15 10 140 7 133 -3z m4713 4 c4 7 12 7 25 0 11 -6 21 -6 24 -1 7
11 25 9 45 -3 9 -6 12 -5 7 2 -4 7 1 10 14 9 11 -1 20 -5 20 -9 0 -5 9 -4 20
2 15 8 20 8 20 -2 0 -8 3 -9 8 -3 8 12 32 13 50 2 6 -5 12 -4 12 1 0 10 70 9
88 -2 7 -4 12 -3 12 1 0 5 15 8 34 8 20 0 32 -4 28 -10 -4 -6 0 -6 9 0 17 13
168 13 188 1 8 -5 12 -5 9 0 -4 5 9 9 28 9 19 0 34 -3 34 -8 0 -6 5 -6 13 0 6
5 57 9 112 8 l100 -1 1 -36 c1 -19 4 -41 8 -47 4 -6 3 -11 -2 -11 -10 0 -8
-42 3 -59 3 -6 3 -11 -2 -11 -4 0 -8 -11 -8 -25 0 -14 4 -25 8 -25 5 0 5 -6 1
-12 -11 -18 -12 -48 -2 -48 5 0 7 -4 4 -9 -9 -14 -11 -105 -3 -118 5 -7 4 -13
-1 -13 -10 0 -8 -42 3 -59 3 -6 3 -11 -2 -11 -4 0 -8 -11 -8 -25 0 -14 4 -25
9 -25 5 0 4 -6 -1 -12 -5 -7 -8 -23 -7 -35 0 -13 -3 -23 -8 -23 -5 0 -6 -4 -3
-10 8 -13 -31 -100 -44 -100 -6 0 -10 -4 -8 -10 4 -16 -75 -91 -90 -86 -8 3
-12 2 -9 -2 7 -11 -40 -38 -94 -52 -66 -18 -203 -23 -194 -7 5 8 2 7 -9 -2 -9
-7 -26 -11 -37 -8 -11 3 -23 1 -26 -4 -3 -6 -11 -6 -17 -1 -14 10 -139 8 -156
-2 -6 -4 -11 -4 -11 1 0 4 -57 7 -126 7 l-126 -1 5 23 c2 13 0 24 -5 24 -5 0
-6 6 -2 12 11 18 12 48 2 48 -5 0 -6 5 -2 11 10 16 11 89 1 89 -4 0 -4 8 0 18
10 21 10 43 0 59 -4 6 -3 14 1 17 10 6 8 48 -3 65 -3 6 -3 11 2 11 4 0 8 11 8
25 0 14 -4 25 -8 25 -5 0 -5 5 -1 11 10 16 11 89 1 89 -4 0 -3 9 3 19 7 14 7
22 -1 26 -6 5 -4 12 8 22 10 8 13 12 7 9 -15 -7 -17 19 -12 132 2 34 0 62 -5
62 -4 0 -5 5 -2 11 12 18 13 59 1 59 -6 0 -4 4 3 9 9 6 22 6 32 0 11 -6 20 -5
24 1z"/>
<path d="M5315 7801 c-3 -5 -2 -12 3 -15 5 -3 9 1 9 9 0 17 -3 19 -12 6z"/>
<path d="M5310 7720 c0 -5 5 -10 11 -10 5 0 7 5 4 10 -3 6 -8 10 -11 10 -2 0
-4 -4 -4 -10z"/>
<path d="M6165 7680 c-3 -6 1 -7 9 -4 18 7 21 14 7 14 -6 0 -13 -4 -16 -10z"/>
<path d="M5233 7645 c0 -8 4 -12 9 -9 5 3 6 10 3 15 -9 13 -12 11 -12 -6z"/>
<path d="M5820 7366 c0 -2 8 -10 18 -17 15 -13 16 -12 3 4 -13 16 -21 21 -21
13z"/>
<path d="M4195 7331 c-3 -5 -2 -12 3 -15 5 -3 9 1 9 9 0 17 -3 19 -12 6z"/>
<path d="M4110 7239 c0 -5 5 -7 10 -4 6 3 10 8 10 11 0 2 -4 4 -10 4 -5 0 -10
-5 -10 -11z"/>
<path d="M2186 7118 c3 -4 9 -8 15 -8 5 0 9 4 9 8 0 5 -7 9 -15 9 -8 0 -12 -4
-9 -9z"/>
<path d="M2836 7113 c-6 -14 -5 -15 5 -6 7 7 10 15 7 18 -3 3 -9 -2 -12 -12z"/>
<path d="M2436 7082 c-3 -5 1 -9 9 -9 8 0 12 4 9 9 -3 4 -7 8 -9 8 -2 0 -6 -4
-9 -8z"/>
<path d="M2639 7058 c-5 -18 -6 -38 -1 -34 7 8 12 36 6 36 -2 0 -4 -1 -5 -2z"/>
<path d="M2430 7000 c0 -5 5 -10 11 -10 5 0 7 5 4 10 -3 6 -8 10 -11 10 -2 0
-4 -4 -4 -10z"/>
<path d="M2950 6996 c7 -7 13 -7 20 0 6 6 3 10 -10 10 -13 0 -16 -4 -10 -10z"/>
<path d="M2313 6925 c0 -8 4 -12 9 -9 5 3 6 10 3 15 -9 13 -12 11 -12 -6z"/>
<path d="M2469 6883 c-13 -16 -12 -17 4 -4 9 7 17 15 17 17 0 8 -8 3 -21 -13z"/>
<path d="M2353 6873 c0 -9 4 -10 14 -2 7 6 13 12 13 14 0 1 -6 2 -13 2 -8 0
-14 -6 -14 -14z"/>
<path d="M2710 6856 c0 -2 8 -10 18 -17 15 -13 16 -12 3 4 -13 16 -21 21 -21
13z"/>
<path d="M2594 6806 c1 -8 5 -18 8 -22 4 -3 5 1 4 10 -1 8 -5 18 -8 22 -4 3
-5 -1 -4 -10z"/>
<path d="M2110 6616 c0 -2 8 -10 18 -17 15 -13 16 -12 3 4 -13 16 -21 21 -21
13z"/>
<path d="M2153 6565 c0 -8 4 -12 9 -9 5 3 6 10 3 15 -9 13 -12 11 -12 -6z"/>
<path d="M2466 6522 c-2 -4 4 -8 14 -8 10 0 16 4 14 8 -3 4 -9 8 -14 8 -5 0
-11 -4 -14 -8z"/>
<path d="M2985 6520 c-3 -6 1 -7 9 -4 18 7 21 14 7 14 -6 0 -13 -4 -16 -10z"/>
<path d="M2340 6406 c0 -2 8 -10 18 -17 15 -13 16 -12 3 4 -13 16 -21 21 -21
13z"/>
<path d="M6950 7166 c0 -2 7 -7 16 -10 8 -3 12 -2 9 4 -6 10 -25 14 -25 6z"/>
<path d="M7315 7080 c-3 -5 -1 -10 4 -10 6 0 11 5 11 10 0 6 -2 10 -4 10 -3 0
-8 -4 -11 -10z"/>
<path d="M7390 7079 c0 -5 5 -7 10 -4 6 3 10 8 10 11 0 2 -4 4 -10 4 -5 0 -10
-5 -10 -11z"/>
<path d="M7635 7001 c-3 -5 -2 -12 3 -15 5 -3 9 1 9 9 0 17 -3 19 -12 6z"/>
<path d="M7227 6879 c7 -7 15 -10 18 -7 3 3 -2 9 -12 12 -14 6 -15 5 -6 -5z"/>
<path d="M6910 6816 c0 -2 8 -10 18 -17 15 -13 16 -12 3 4 -13 16 -21 21 -21
13z"/>
<path d="M6916 6727 c3 -10 9 -15 12 -12 3 3 0 11 -7 18 -10 9 -11 8 -5 -6z"/>
<path d="M7700 6726 c0 -2 8 -10 18 -17 15 -13 16 -12 3 4 -13 16 -21 21 -21
13z"/>
<path d="M6914 6566 c1 -8 5 -18 8 -22 4 -3 5 1 4 10 -1 8 -5 18 -8 22 -4 3
-5 -1 -4 -10z"/>
<path d="M7634 6569 c-3 -6 -2 -15 3 -20 5 -5 9 -1 9 11 0 23 -2 24 -12 9z"/>
<path d="M7350 6436 c7 -7 13 -7 20 0 6 6 3 10 -10 10 -13 0 -16 -4 -10 -10z"/>
<path d="M7509 6363 c-13 -16 -12 -17 4 -4 16 13 21 21 13 21 -2 0 -10 -8 -17
-17z"/>
<path d="M2359 5513 c-13 -16 -12 -17 4 -4 9 7 17 15 17 17 0 8 -8 3 -21 -13z"/>
<path d="M2629 5483 c-13 -16 -12 -17 4 -4 16 13 21 21 13 21 -2 0 -10 -8 -17
-17z"/>
<path d="M2439 5433 c-13 -16 -12 -17 4 -4 16 13 21 21 13 21 -2 0 -10 -8 -17
-17z"/>
<path d="M2196 5367 c3 -10 9 -15 12 -12 3 3 0 11 -7 18 -10 9 -11 8 -5 -6z"/>
<path d="M2110 4926 c0 -2 7 -7 16 -10 8 -3 12 -2 9 4 -6 10 -25 14 -25 6z"/>
<path d="M5876 5402 c-3 -5 1 -9 9 -9 8 0 12 4 9 9 -3 4 -7 8 -9 8 -2 0 -6 -4
-9 -8z"/>
<path d="M5473 5075 c0 -8 4 -12 9 -9 5 3 6 10 3 15 -9 13 -12 11 -12 -6z"/>
<path d="M6195 4929 c-4 -6 -5 -12 -2 -15 2 -3 7 2 10 11 7 17 1 20 -8 4z"/>
<path d="M6116 4922 c-3 -5 1 -9 9 -9 8 0 12 4 9 9 -3 4 -7 8 -9 8 -2 0 -6 -4
-9 -8z"/>
<path d="M6115 4760 c3 -5 8 -10 11 -10 2 0 4 5 4 10 0 6 -5 10 -11 10 -5 0
-7 -4 -4 -10z"/>
<path d="M5600 4560 c-9 -6 -10 -10 -3 -10 6 0 15 5 18 10 8 12 4 12 -15 0z"/>
<path d="M3795 4520 c3 -5 8 -10 11 -10 2 0 4 5 4 10 0 6 -5 10 -11 10 -5 0
-7 -4 -4 -10z"/>
<path d="M4756 4522 c-3 -5 1 -9 9 -9 8 0 12 4 9 9 -3 4 -7 8 -9 8 -2 0 -6 -4
-9 -8z"/>
<path d="M3870 3721 c0 -6 4 -13 10 -16 6 -3 7 1 4 9 -7 18 -14 21 -14 7z"/>
<path d="M6916 5638 c3 -5 10 -6 15 -3 13 9 11 12 -6 12 -8 0 -12 -4 -9 -9z"/>
<path d="M7109 5483 c-13 -16 -12 -17 4 -4 9 7 17 15 17 17 0 8 -8 3 -21 -13z"/>
<path d="M7319 5273 c-13 -16 -12 -17 4 -4 9 7 17 15 17 17 0 8 -8 3 -21 -13z"/>
<path d="M2674 4086 c1 -8 5 -18 8 -22 4 -3 5 1 4 10 -1 8 -5 18 -8 22 -4 3
-5 -1 -4 -10z"/>
<path d="M2839 3673 c-13 -16 -12 -17 4 -4 16 13 21 21 13 21 -2 0 -10 -8 -17
-17z"/>
<path d="M2910 3616 c0 -2 8 -10 18 -17 15 -13 16 -12 3 4 -13 16 -21 21 -21
13z"/>
<path d="M2910 3456 c0 -2 8 -10 18 -17 15 -13 16 -12 3 4 -13 16 -21 21 -21
13z"/>
<path d="M2995 3331 c-3 -5 -2 -12 3 -15 5 -3 9 1 9 9 0 17 -3 19 -12 6z"/>
<path d="M6915 4089 c-4 -6 -5 -12 -2 -15 2 -3 7 2 10 11 7 17 1 20 -8 4z"/>
<path d="M6950 4056 c0 -2 8 -10 18 -17 15 -13 16 -12 3 4 -13 16 -21 21 -21
13z"/>
<path d="M7540 4006 c0 -2 8 -10 18 -17 15 -13 16 -12 3 4 -13 16 -21 21 -21
13z"/>
<path d="M7745 3800 c-3 -6 1 -7 9 -4 18 7 21 14 7 14 -6 0 -13 -4 -16 -10z"/>
<path d="M6914 3680 c0 -13 4 -16 10 -10 7 7 7 13 0 20 -6 6 -10 3 -10 -10z"/>
<path d="M6946 3482 c-2 -4 4 -8 14 -8 10 0 16 4 14 8 -3 4 -9 8 -14 8 -5 0
-11 -4 -14 -8z"/>
<path d="M7106 3442 c-3 -5 1 -9 9 -9 8 0 12 4 9 9 -3 4 -7 8 -9 8 -2 0 -6 -4
-9 -8z"/>
<path d="M1355 5520 c3 -5 8 -10 11 -10 2 0 4 5 4 10 0 6 -5 10 -11 10 -5 0
-7 -4 -4 -10z"/>
<path d="M2360 2600 c-9 -6 -10 -10 -3 -10 6 0 15 5 18 10 8 12 4 12 -15 0z"/>
<path d="M7630 2599 c0 -5 5 -7 10 -4 6 3 10 8 10 11 0 2 -4 4 -10 4 -5 0 -10
-5 -10 -11z"/>
<path d="M2954 2569 c-3 -6 -2 -15 3 -20 5 -5 9 -1 9 11 0 23 -2 24 -12 9z"/>
<path d="M2356 2522 c-3 -5 1 -9 9 -9 8 0 12 4 9 9 -3 4 -7 8 -9 8 -2 0 -6 -4
-9 -8z"/>
<path d="M2435 2520 c3 -5 8 -10 11 -10 2 0 4 5 4 10 0 6 -5 10 -11 10 -5 0
-7 -4 -4 -10z"/>
<path d="M6635 2520 c-3 -5 -1 -10 4 -10 6 0 11 5 11 10 0 6 -2 10 -4 10 -3 0
-8 -4 -11 -10z"/>
<path d="M7626 2518 c3 -5 10 -6 15 -3 13 9 11 12 -6 12 -8 0 -12 -4 -9 -9z"/>
<path d="M3075 2489 c-4 -6 -5 -12 -2 -15 2 -3 7 2 10 11 7 17 1 20 -8 4z"/>
<path d="M2396 2473 c-6 -14 -5 -15 5 -6 7 7 10 15 7 18 -3 3 -9 -2 -12 -12z"/>
<path d="M2150 2441 c0 -6 4 -13 10 -16 6 -3 7 1 4 9 -7 18 -14 21 -14 7z"/>
<path d="M2435 2441 c-3 -5 -2 -12 3 -15 5 -3 9 1 9 9 0 17 -3 19 -12 6z"/>
<path d="M6635 2440 c3 -5 8 -10 11 -10 2 0 4 5 4 10 0 6 -5 10 -11 10 -5 0
-7 -4 -4 -10z"/>
<path d="M7736 2393 c-6 -14 -5 -15 5 -6 7 7 10 15 7 18 -3 3 -9 -2 -12 -12z"/>
<path d="M2595 2360 c-3 -5 -1 -10 4 -10 6 0 11 5 11 10 0 6 -2 10 -4 10 -3 0
-8 -4 -11 -10z"/>
<path d="M2675 2360 c3 -5 8 -10 11 -10 2 0 4 5 4 10 0 6 -5 10 -11 10 -5 0
-7 -4 -4 -10z"/>
<path d="M8400 2320 c-9 -6 -10 -10 -3 -10 6 0 15 5 18 10 8 12 4 12 -15 0z"/>
<path d="M3195 2280 c-3 -5 -1 -10 4 -10 6 0 11 5 11 10 0 6 -2 10 -4 10 -3 0
-8 -4 -11 -10z"/>
<path d="M3260 2286 c0 -2 8 -10 18 -17 15 -13 16 -12 3 4 -13 16 -21 21 -21
13z"/>
<path d="M7020 2286 c0 -2 8 -10 18 -17 15 -13 16 -12 3 4 -13 16 -21 21 -21
13z"/>
<path d="M7236 2278 c3 -5 10 -6 15 -3 13 9 11 12 -6 12 -8 0 -12 -4 -9 -9z"/>
<path d="M3150 2256 c0 -2 8 -10 18 -17 15 -13 16 -12 3 4 -13 16 -21 21 -21
13z"/>
<path d="M6993 2235 c0 -8 4 -12 9 -9 5 3 6 10 3 15 -9 13 -12 11 -12 -6z"/>
<path d="M6513 2205 c0 -8 4 -12 9 -9 5 3 6 10 3 15 -9 13 -12 11 -12 -6z"/>
<path d="M7233 2205 c0 -8 4 -12 9 -9 5 3 6 10 3 15 -9 13 -12 11 -12 -6z"/>
<path d="M2795 2200 c-3 -5 -1 -10 4 -10 6 0 11 5 11 10 0 6 -2 10 -4 10 -3 0
-8 -4 -11 -10z"/>
<path d="M7035 2200 c3 -5 8 -10 11 -10 2 0 4 5 4 10 0 6 -5 10 -11 10 -5 0
-7 -4 -4 -10z"/>
<path d="M7076 2162 c-3 -5 1 -9 9 -9 8 0 12 4 9 9 -3 4 -7 8 -9 8 -2 0 -6 -4
-9 -8z"/>
<path d="M6235 2149 c-4 -6 -5 -12 -2 -15 2 -3 7 2 10 11 7 17 1 20 -8 4z"/>
<path d="M2870 2120 c0 -5 5 -10 10 -10 6 0 10 5 10 10 0 6 -4 10 -10 10 -5 0
-10 -4 -10 -10z"/>
<path d="M2996 2087 c3 -10 9 -15 12 -12 3 3 0 11 -7 18 -10 9 -11 8 -5 -6z"/>
<path d="M3710 2086 c0 -2 7 -7 16 -10 8 -3 12 -2 9 4 -6 10 -25 14 -25 6z"/>
<path d="M6670 2040 c0 -5 5 -10 11 -10 5 0 7 5 4 10 -3 6 -8 10 -11 10 -2 0
-4 -4 -4 -10z"/>
<path d="M3670 2020 c0 -5 5 -10 11 -10 5 0 7 5 4 10 -3 6 -8 10 -11 10 -2 0
-4 -4 -4 -10z"/>
<path d="M7435 2011 c-3 -5 -2 -12 3 -15 5 -3 9 1 9 9 0 17 -3 19 -12 6z"/>
<path d="M3146 1998 c3 -5 10 -6 15 -3 13 9 11 12 -6 12 -8 0 -12 -4 -9 -9z"/>
<path d="M6140 2006 c0 -2 8 -10 18 -17 15 -13 16 -12 3 4 -13 16 -21 21 -21
13z"/>
<path d="M3235 1971 c-3 -5 -2 -12 3 -15 5 -3 9 1 9 9 0 17 -3 19 -12 6z"/>
<path d="M6830 1959 c0 -5 5 -7 10 -4 6 3 10 8 10 11 0 2 -4 4 -10 4 -5 0 -10
-5 -10 -11z"/>
<path d="M6210 1920 c0 -5 5 -10 10 -10 6 0 10 5 10 10 0 6 -4 10 -10 10 -5 0
-10 -4 -10 -10z"/>
<path d="M7105 1920 c-3 -6 1 -7 9 -4 18 7 21 14 7 14 -6 0 -13 -4 -16 -10z"/>
<path d="M6559 1813 c-13 -16 -12 -17 4 -4 9 7 17 15 17 17 0 8 -8 3 -21 -13z"/>
<path d="M4755 1801 c-3 -5 -2 -12 3 -15 5 -3 9 1 9 9 0 17 -3 19 -12 6z"/>
<path d="M5835 1769 c-4 -6 -5 -12 -2 -15 2 -3 7 2 10 11 7 17 1 20 -8 4z"/>
<path d="M5146 1722 c-3 -5 1 -9 9 -9 8 0 12 4 9 9 -3 4 -7 8 -9 8 -2 0 -6 -4
-9 -8z"/>
<path d="M4913 1645 c0 -8 4 -12 9 -9 5 3 6 10 3 15 -9 13 -12 11 -12 -6z"/>
<path d="M3870 1406 c0 -2 7 -7 16 -10 8 -3 12 -2 9 4 -6 10 -25 14 -25 6z"/>
</g>
</svg>
